<svg xmlns="http://www.w3.org/2000/svg" viewBox="0 0 1000 1250" width="1000" height="1250" role="img" aria-label="水雷屯のイメージ">
  <title>水雷屯（第3卦 ䷂）</title>
  <defs>
    <linearGradient id="bg" x1="0" y1="0" x2="0" y2="1">
      <stop offset="0%" stop-color="oklch(0.94 0.02 250)"/>
      <stop offset="100%" stop-color="oklch(0.91 0.03 300)"/>
    </linearGradient>
    <linearGradient id="fadeDown" x1="0" y1="0" x2="0" y2="1">
      <stop offset="43.84%" stop-color="#fff"/>
      <stop offset="53.28%" stop-color="#000"/>
    </linearGradient>
    <linearGradient id="fadeUp" x1="0" y1="0" x2="0" y2="1">
      <stop offset="43.84%" stop-color="#000"/>
      <stop offset="53.28%" stop-color="#fff"/>
    </linearGradient>
    <mask id="maskUpper"><rect width="1000" height="1250" fill="url(#fadeDown)"/></mask>
    <mask id="maskLower"><rect width="1000" height="1250" fill="url(#fadeUp)"/></mask>
    <filter id="grain">
      <feTurbulence type="fractalNoise" baseFrequency="0.85" numOctaves="3" seed="3"/>
      <feColorMatrix type="saturate" values="0"/>
    </filter>
    <clipPath id="frame"><rect width="1000" height="1250"/></clipPath>
  </defs>
  <rect width="1000" height="1250" fill="url(#bg)"/>
  <g clip-path="url(#frame)">
    <g mask="url(#maskUpper)">
<path d="M 0 3.57 Q 73.03 -29.61 146.05 3.57 Q 219.08 36.74 292.1 3.57 Q 365.13 -29.61 438.15 3.57 Q 511.18 36.74 584.2 3.57 Q 657.23 -29.61 730.26 3.57 Q 803.28 36.74 876.31 3.57 Q 949.33 36.74 1000 3.57" fill="none" stroke="oklch(0.58 0.19 250)" stroke-width="2.47" opacity="0.3"/>
<path d="M 0 45.21 Q 51.99 24.76 103.97 45.21 Q 155.96 65.66 207.95 45.21 Q 259.94 24.76 311.92 45.21 Q 363.91 65.66 415.9 45.21 Q 467.89 24.76 519.87 45.21 Q 571.86 65.66 623.85 45.21 Q 675.84 65.66 727.82 45.21 Q 779.81 24.76 831.8 45.21 Q 883.79 65.66 935.77 45.21 Q 987.76 24.76 1000 45.21" fill="none" stroke="oklch(0.38 0.14 250)" stroke-width="2.87" opacity="0.28"/>
<path d="M 0 85.1 Q 55.46 63.74 110.92 85.1 Q 166.38 106.45 221.84 85.1 Q 277.3 63.74 332.76 85.1 Q 388.22 106.45 443.68 85.1 Q 499.14 63.74 554.6 85.1 Q 610.06 106.45 665.52 85.1 Q 720.98 63.74 776.44 85.1 Q 831.9 106.45 887.36 85.1 Q 942.82 63.74 998.28 85.1 Q 1053.74 106.45 1000 85.1" fill="none" stroke="oklch(0.38 0.14 250)" stroke-width="2.22" opacity="0.24"/>
<path d="M 0 127.77 Q 48.45 111.12 96.91 127.77 Q 145.36 144.42 193.82 127.77 Q 242.27 111.12 290.73 127.77 Q 339.18 144.42 387.64 127.77 Q 436.09 111.12 484.55 127.77 Q 533 144.42 581.46 127.77 Q 629.91 144.42 678.37 127.77 Q 726.82 111.12 775.28 127.77 Q 823.73 144.42 872.19 127.77 Q 920.64 111.12 969.1 127.77 Q 1017.55 144.42 1000 127.77" fill="none" stroke="oklch(0.38 0.14 250)" stroke-width="1.85" opacity="0.46"/>
<path d="M 0 167.42 Q 49.91 135.01 99.82 167.42 Q 149.73 199.83 199.65 167.42 Q 249.56 135.01 299.47 167.42 Q 349.38 199.83 399.29 167.42 Q 449.2 135.01 499.12 167.42 Q 549.03 199.83 598.94 167.42 Q 648.85 199.83 698.76 167.42 Q 748.67 135.01 798.59 167.42 Q 848.5 199.83 898.41 167.42 Q 948.32 135.01 998.23 167.42 Q 1048.14 199.83 1000 167.42" fill="none" stroke="oklch(0.38 0.14 250)" stroke-width="1.8" opacity="0.51"/>
<path d="M 0 213.97 Q 72.17 204.94 144.34 213.97 Q 216.51 223 288.68 213.97 Q 360.86 204.94 433.03 213.97 Q 505.2 223 577.37 213.97 Q 649.54 204.94 721.71 213.97 Q 793.88 223 866.05 213.97 Q 938.22 204.94 1000 213.97" fill="none" stroke="oklch(0.58 0.19 250)" stroke-width="2.44" opacity="0.38"/>
<path d="M 0 254.36 Q 48.49 247.46 96.97 254.36 Q 145.46 261.25 193.94 254.36 Q 242.43 247.46 290.92 254.36 Q 339.4 261.25 387.89 254.36 Q 436.38 247.46 484.86 254.36 Q 533.35 261.25 581.83 254.36 Q 630.32 247.46 678.81 254.36 Q 727.29 261.25 775.78 254.36 Q 824.26 247.46 872.75 254.36 Q 921.24 261.25 969.72 254.36 Q 1018.21 247.46 1000 254.36" fill="none" stroke="oklch(0.38 0.14 250)" stroke-width="2.08" opacity="0.23"/>
<path d="M 0 292.91 Q 41.73 253.66 83.46 292.91 Q 125.2 332.16 166.93 292.91 Q 208.66 253.66 250.39 292.91 Q 292.12 332.16 333.85 292.91 Q 375.59 253.66 417.32 292.91 Q 459.05 332.16 500.78 292.91 Q 542.51 253.66 584.25 292.91 Q 625.98 332.16 667.71 292.91 Q 709.44 253.66 751.17 292.91 Q 792.9 332.16 834.64 292.91 Q 876.37 253.66 918.1 292.91 Q 959.83 332.16 1000 292.91" fill="none" stroke="oklch(0.38 0.14 250)" stroke-width="1.71" opacity="0.29"/>
<path d="M 0 338.47 Q 53.71 316.5 107.43 338.47 Q 161.14 360.45 214.85 338.47 Q 268.56 316.5 322.28 338.47 Q 375.99 360.45 429.7 338.47 Q 483.41 316.5 537.13 338.47 Q 590.84 360.45 644.55 338.47 Q 698.27 316.5 751.98 338.47 Q 805.69 316.5 859.4 338.47 Q 913.12 360.45 966.83 338.47 Q 1020.54 316.5 1000 338.47" fill="none" stroke="oklch(0.38 0.14 250)" stroke-width="3.07" opacity="0.48"/>
<path d="M 0 375.89 Q 52.45 354.86 104.89 375.89 Q 157.34 396.92 209.78 375.89 Q 262.23 354.86 314.68 375.89 Q 367.12 396.92 419.57 375.89 Q 472.02 354.86 524.46 375.89 Q 576.91 396.92 629.35 375.89 Q 681.8 354.86 734.25 375.89 Q 786.69 354.86 839.14 375.89 Q 891.58 396.92 944.03 375.89 Q 996.48 354.86 1000 375.89" fill="none" stroke="oklch(0.38 0.14 250)" stroke-width="2.17" opacity="0.16"/>
<path d="M 0 416.85 Q 48.16 389.34 96.32 416.85 Q 144.47 444.36 192.63 416.85 Q 240.79 389.34 288.95 416.85 Q 337.11 444.36 385.27 416.85 Q 433.42 389.34 481.58 416.85 Q 529.74 444.36 577.9 416.85 Q 626.06 389.34 674.22 416.85 Q 722.37 444.36 770.53 416.85 Q 818.69 389.34 866.85 416.85 Q 915.01 444.36 963.17 416.85 Q 1011.32 389.34 1000 416.85" fill="none" stroke="oklch(0.58 0.19 250)" stroke-width="2.33" opacity="0.5"/>
<path d="M 0 457.93 Q 52.31 435.89 104.61 457.93 Q 156.92 479.97 209.22 457.93 Q 261.53 435.89 313.83 457.93 Q 366.14 479.97 418.44 457.93 Q 470.75 435.89 523.05 457.93 Q 575.36 435.89 627.66 457.93 Q 679.97 479.97 732.27 457.93 Q 784.58 435.89 836.88 457.93 Q 889.19 479.97 941.49 457.93 Q 993.8 435.89 1000 457.93" fill="none" stroke="oklch(0.38 0.14 250)" stroke-width="1.28" opacity="0.54"/>
<path d="M 0 502.28 Q 63.76 462.84 127.52 502.28 Q 191.28 541.72 255.04 502.28 Q 318.8 462.84 382.55 502.28 Q 446.31 541.72 510.07 502.28 Q 573.83 462.84 637.59 502.28 Q 701.35 541.72 765.11 502.28 Q 828.87 462.84 892.63 502.28 Q 956.39 541.72 1000 502.28" fill="none" stroke="oklch(0.38 0.14 250)" stroke-width="2.22" opacity="0.45"/>
<path d="M 0 545.67 Q 42.54 527.76 85.07 545.67 Q 127.61 563.57 170.14 545.67 Q 212.68 527.76 255.22 545.67 Q 297.75 563.57 340.29 545.67 Q 382.82 527.76 425.36 545.67 Q 467.9 563.57 510.43 545.67 Q 552.97 527.76 595.5 545.67 Q 638.04 563.57 680.58 545.67 Q 723.11 527.76 765.65 545.67 Q 808.18 563.57 850.72 545.67 Q 893.26 527.76 935.79 545.67 Q 978.33 563.57 1000 545.67" fill="none" stroke="oklch(0.38 0.14 250)" stroke-width="0.81" opacity="0.29"/>
<path d="M 0 584.53 Q 53.55 567.85 107.1 584.53 Q 160.65 601.22 214.21 584.53 Q 267.76 567.85 321.31 584.53 Q 374.86 601.22 428.41 584.53 Q 481.96 567.85 535.51 584.53 Q 589.06 601.22 642.62 584.53 Q 696.17 567.85 749.72 584.53 Q 803.27 601.22 856.82 584.53 Q 910.37 567.85 963.92 584.53 Q 1017.48 601.22 1000 584.53" fill="none" stroke="oklch(0.38 0.14 250)" stroke-width="1.51" opacity="0.3"/>
<path d="M 0 626.19 Q 46.94 597.64 93.89 626.19 Q 140.83 654.74 187.78 626.19 Q 234.72 597.64 281.67 626.19 Q 328.61 654.74 375.56 626.19 Q 422.5 597.64 469.45 626.19 Q 516.39 654.74 563.34 626.19 Q 610.28 654.74 657.23 626.19 Q 704.17 597.64 751.11 626.19 Q 798.06 654.74 845 626.19 Q 891.95 597.64 938.89 626.19 Q 985.84 654.74 1000 626.19" fill="none" stroke="oklch(0.58 0.19 250)" stroke-width="1.62" opacity="0.15"/>
    </g>
    <g mask="url(#maskLower)">
<path d="M 170.17 718.67 L 174.21 766.4 L 152.17 798.02 L 241.05 865.05 L 241.33 901.81 L 325.91 948.08 L 191.43 982.08 L 108.12 1045.74 L 150.26 1102.66 L 32.97 1182.66 L 148.2 1236.82 L 264.38 1291.66 L 204.72 1344.46" fill="none" stroke="oklch(0.58 0.19 300)" stroke-width="4.25" stroke-linejoin="miter" opacity="0.51"/>
<path d="M 272.79 594.78 L 231.47 674.1 L 289.56 749.39 L 155.65 827.83 L 14.21 881.81 L -117.77 932.28 L -230.65 1008.62 L -357.81 1067.31 L -389.45 1128.25 L -439.41 1169.38 L -417.32 1210.08 L -502.9 1251.38 L -544.11 1283.43" fill="none" stroke="oklch(0.38 0.14 300)" stroke-width="5.66" stroke-linejoin="miter" opacity="0.69"/>
<path d="M 817.65 713.33 L 736.27 782.98 L 696.08 871.06 L 635.78 976.51 L 775.29 1051.62 L 844.06 1151.12 L 721.8 1281.92 L 631.02 1352.66" fill="none" stroke="oklch(0.38 0.14 300)" stroke-width="5.34" stroke-linejoin="miter" opacity="0.66"/>
<path d="M 200.62 689.7 L 309.67 786.2 L 271.23 856.93 L 298.02 989.97 L 151.64 1054.21 L 194.96 1163.68 L 270.81 1240.13" fill="none" stroke="oklch(0.58 0.19 300)" stroke-width="5.33" stroke-linejoin="miter" opacity="0.45"/>
<path d="M 719.01 692.03 L 779.73 846.44 L 876.78 1040.39 L 1024.37 1113.64 L 955.57 1252.35 L 999.74 1339.07" fill="none" stroke="oklch(0.38 0.14 300)" stroke-width="3.69" stroke-linejoin="miter" opacity="0.54"/>
<path d="M 511.17 594.55 L 408.64 759.54 L 409.43 946.72 L 484.78 1041.3 L 564.18 1179.35 L 540.16 1327.31" fill="none" stroke="oklch(0.38 0.14 300)" stroke-width="2.4" stroke-linejoin="miter" opacity="0.41"/>
<path d="M 62.15 573.57 L 155.93 649.67 L 98.59 705.01 L 131.21 759.82 L -10.24 834.29 L -123.94 925.01 L -73.73 967.25 L -126.21 1004.82 L -219.3 1091.4 L -70.24 1178.45 L 73.53 1251.57" fill="none" stroke="oklch(0.58 0.19 300)" stroke-width="4.12" stroke-linejoin="miter" opacity="0.57"/>
<rect x="487.98" y="709.22" width="9.67" height="2.25" fill="oklch(0.58 0.19 300)" opacity="0.15"/>
<rect x="926.14" y="929.1" width="10.51" height="1.76" fill="oklch(0.58 0.19 300)" opacity="0.37"/>
<rect x="886.98" y="930.82" width="17.41" height="3.77" fill="oklch(0.58 0.19 300)" opacity="0.11"/>
<rect x="704.66" y="564.46" width="26.92" height="1.45" fill="oklch(0.58 0.19 300)" opacity="0.35"/>
<rect x="386.28" y="1010.72" width="22.56" height="2.31" fill="oklch(0.58 0.19 300)" opacity="0.29"/>
<rect x="126.61" y="858.38" width="41.15" height="3.5" fill="oklch(0.58 0.19 300)" opacity="0.15"/>
<rect x="41.8" y="706.97" width="20.63" height="1.19" fill="oklch(0.58 0.19 300)" opacity="0.3"/>
<rect x="362.39" y="1127.66" width="34.3" height="2.44" fill="oklch(0.58 0.19 300)" opacity="0.17"/>
<rect x="353.6" y="563.03" width="36.91" height="1.4" fill="oklch(0.58 0.19 300)" opacity="0.23"/>
<rect x="779.45" y="1197.46" width="2.54" height="3.86" fill="oklch(0.58 0.19 300)" opacity="0.21"/>
<rect x="704.72" y="997.08" width="17.34" height="2.59" fill="oklch(0.58 0.19 300)" opacity="0.37"/>
<rect x="901.34" y="689.99" width="25.22" height="3.97" fill="oklch(0.58 0.19 300)" opacity="0.4"/>
<rect x="558.1" y="1147.3" width="40.54" height="1.58" fill="oklch(0.58 0.19 300)" opacity="0.31"/>
<rect x="36.27" y="871.87" width="12.21" height="1.22" fill="oklch(0.58 0.19 300)" opacity="0.27"/>
<rect x="637.66" y="1149.87" width="5" height="2.62" fill="oklch(0.58 0.19 300)" opacity="0.14"/>
<rect x="573.2" y="1189.17" width="24.39" height="3.19" fill="oklch(0.58 0.19 300)" opacity="0.25"/>
<rect x="157.63" y="1083.92" width="35.6" height="2.91" fill="oklch(0.58 0.19 300)" opacity="0.22"/>
<rect x="474.16" y="615.18" width="18.6" height="3.85" fill="oklch(0.58 0.19 300)" opacity="0.12"/>
<rect x="589.86" y="952.53" width="23.77" height="3.48" fill="oklch(0.58 0.19 300)" opacity="0.16"/>
<rect x="864.89" y="1073.99" width="16.61" height="3.51" fill="oklch(0.58 0.19 300)" opacity="0.1"/>
<rect x="472.79" y="636.87" width="3.19" height="3.99" fill="oklch(0.58 0.19 300)" opacity="0.32"/>
<rect x="268.2" y="1149.89" width="2.82" height="3.88" fill="oklch(0.58 0.19 300)" opacity="0.14"/>
<rect x="648.5" y="707.98" width="23.24" height="2.86" fill="oklch(0.58 0.19 300)" opacity="0.39"/>
<rect x="851.24" y="1012.7" width="11.5" height="2.64" fill="oklch(0.58 0.19 300)" opacity="0.1"/>
<rect x="365.96" y="1189.5" width="22.44" height="3.19" fill="oklch(0.58 0.19 300)" opacity="0.37"/>
<rect x="970.89" y="1046.9" width="21.47" height="1.98" fill="oklch(0.58 0.19 300)" opacity="0.22"/>
<rect x="362.24" y="1159.63" width="5.75" height="3.32" fill="oklch(0.58 0.19 300)" opacity="0.14"/>
<rect x="3.91" y="1153.4" width="25.94" height="1.85" fill="oklch(0.58 0.19 300)" opacity="0.39"/>
<rect x="158.95" y="686.86" width="20.96" height="2.5" fill="oklch(0.58 0.19 300)" opacity="0.22"/>
<rect x="600.25" y="1024.62" width="15.5" height="3.79" fill="oklch(0.58 0.19 300)" opacity="0.27"/>
<rect x="111.18" y="1156.04" width="39.1" height="3.02" fill="oklch(0.58 0.19 300)" opacity="0.14"/>
<rect x="163.2" y="1209.53" width="22.47" height="3.36" fill="oklch(0.58 0.19 300)" opacity="0.14"/>
<rect x="62.51" y="665.53" width="20.68" height="1.24" fill="oklch(0.58 0.19 300)" opacity="0.33"/>
<rect x="828.62" y="662.02" width="30.16" height="3.64" fill="oklch(0.58 0.19 300)" opacity="0.17"/>
<rect x="105.46" y="760.04" width="25.35" height="1.68" fill="oklch(0.58 0.19 300)" opacity="0.37"/>
<rect x="684.86" y="691.47" width="9.13" height="1.97" fill="oklch(0.58 0.19 300)" opacity="0.33"/>
<rect x="173.82" y="597.25" width="30.16" height="3.76" fill="oklch(0.58 0.19 300)" opacity="0.19"/>
<rect x="812.95" y="665.23" width="40.65" height="3.51" fill="oklch(0.58 0.19 300)" opacity="0.33"/>
<rect x="264.61" y="605.02" width="3.31" height="2.56" fill="oklch(0.58 0.19 300)" opacity="0.23"/>
<rect x="416.37" y="952.42" width="29.19" height="1.31" fill="oklch(0.58 0.19 300)" opacity="0.2"/>
    </g>
    <path d="M 560.69 366.96 A 228.87 228.87 0 1 1 304.42 692.7" fill="none" stroke="oklch(0.25 0.02 90)" stroke-width="3" opacity="0.38"/>
  </g>
  <rect width="1000" height="1250" filter="url(#grain)" opacity="0.09" style="mix-blend-mode:overlay"/>
</svg>
