<svg xmlns="http://www.w3.org/2000/svg" viewBox="0 0 1000 1250" width="1000" height="1250" role="img" aria-label="山天大畜のイメージ">
  <title>山天大畜（第26卦 ䷙）</title>
  <defs>
    <linearGradient id="bg" x1="0" y1="0" x2="0" y2="1">
      <stop offset="0%" stop-color="oklch(0.22 0.05 148)"/>
      <stop offset="100%" stop-color="oklch(0.19 0.05 85)"/>
    </linearGradient>
    <linearGradient id="fadeDown" x1="0" y1="0" x2="0" y2="1">
      <stop offset="28.9%" stop-color="#fff"/>
      <stop offset="44.38%" stop-color="#000"/>
    </linearGradient>
    <linearGradient id="fadeUp" x1="0" y1="0" x2="0" y2="1">
      <stop offset="28.9%" stop-color="#000"/>
      <stop offset="44.38%" stop-color="#fff"/>
    </linearGradient>
    <mask id="maskUpper"><rect width="1000" height="1250" fill="url(#fadeDown)"/></mask>
    <mask id="maskLower"><rect width="1000" height="1250" fill="url(#fadeUp)"/></mask>
    <filter id="grain">
      <feTurbulence type="fractalNoise" baseFrequency="0.85" numOctaves="3" seed="26"/>
      <feColorMatrix type="saturate" values="0"/>
    </filter>
    <clipPath id="frame"><rect width="1000" height="1250"/></clipPath>
  </defs>
  <rect width="1000" height="1250" fill="url(#bg)"/>
  <g clip-path="url(#frame)">
    <g mask="url(#maskUpper)">
<path d="M 0 554.79 L -125 420.56 L 0 554.79 L 125 416.24 L 250 554.79 L 375 401.38 L 500 554.79 L 625 190.96 L 750 554.79 L 875 442.75 L 1000 554.79 L 1000 554.79 L 0 554.79 Z" fill="oklch(0.62 0.06 148)" opacity="0.14"/>
<path d="M 0 499.31 L -100 397.84 L 0 499.31 L 100 317.09 L 200 499.31 L 300 333.76 L 400 499.31 L 500 220.28 L 600 499.31 L 700 327.82 L 800 499.31 L 900 218.01 L 1000 499.31 L 1000 554.79 L 0 554.79 Z" fill="oklch(0.62 0.06 148)" opacity="0.23"/>
<path d="M 0 443.83 L -166.67 208.12 L 0 443.83 L 166.67 363.67 L 333.33 443.83 L 500 256.8 L 666.67 443.83 L 833.33 307.3 L 1000 443.83 L 1000 554.79 L 0 554.79 Z" fill="oklch(0.62 0.06 148)" opacity="0.31"/>
<path d="M 0 388.35 L -71.43 262.43 L 0 388.35 L 71.43 268.5 L 142.86 388.35 L 214.29 296.38 L 285.71 388.35 L 357.14 313.87 L 428.57 388.35 L 500 189.68 L 571.43 388.35 L 642.86 299.54 L 714.29 388.35 L 785.71 278.3 L 857.14 388.35 L 928.57 190.28 L 1000 388.35 L 1000 554.79 L 0 554.79 Z" fill="oklch(0.62 0.06 148)" opacity="0.4"/>
<path d="M 0 332.87 L -83.33 202.3 L 0 332.87 L 83.33 221.76 L 166.67 332.87 L 250 204.87 L 333.33 332.87 L 416.67 250.74 L 500 332.87 L 583.33 190.01 L 666.67 332.87 L 750 223.92 L 833.33 332.87 L 916.67 188.91 L 1000 332.87 L 1000 554.79 L 0 554.79 Z" fill="oklch(0.62 0.06 148)" opacity="0.48"/>
    </g>
    <g mask="url(#maskLower)">
<circle cx="500" cy="832.84" r="69.93" fill="none" stroke="oklch(0.78 0.19 85)" stroke-width="2.72" opacity="0.29"/>
<circle cx="500" cy="832.84" r="139.86" fill="none" stroke="oklch(0.86 0.15 85)" stroke-width="1.47" opacity="0.37"/>
<circle cx="500" cy="832.84" r="209.79" fill="none" stroke="oklch(0.86 0.15 85)" stroke-width="2.07" opacity="0.46"/>
<circle cx="500" cy="832.84" r="279.72" fill="none" stroke="oklch(0.78 0.19 85)" stroke-width="2.72" opacity="0.42"/>
<circle cx="500" cy="832.84" r="349.65" fill="none" stroke="oklch(0.86 0.15 85)" stroke-width="1.1" opacity="0.41"/>
<circle cx="500" cy="832.84" r="419.58" fill="none" stroke="oklch(0.86 0.15 85)" stroke-width="0.67" opacity="0.43"/>
<circle cx="500" cy="832.84" r="489.51" fill="none" stroke="oklch(0.78 0.19 85)" stroke-width="2.78" opacity="0.58"/>
<circle cx="500" cy="832.84" r="559.44" fill="none" stroke="oklch(0.86 0.15 85)" stroke-width="2.04" opacity="0.27"/>
<circle cx="500" cy="832.84" r="629.37" fill="none" stroke="oklch(0.86 0.15 85)" stroke-width="2.25" opacity="0.3"/>
<circle cx="500" cy="832.84" r="699.3" fill="none" stroke="oklch(0.78 0.19 85)" stroke-width="1.24" opacity="0.36"/>
<circle cx="500" cy="832.84" r="769.23" fill="none" stroke="oklch(0.86 0.15 85)" stroke-width="2.74" opacity="0.43"/>
<circle cx="500" cy="832.84" r="839.16" fill="none" stroke="oklch(0.86 0.15 85)" stroke-width="1.72" opacity="0.19"/>
<circle cx="500" cy="832.84" r="909.09" fill="none" stroke="oklch(0.78 0.19 85)" stroke-width="0.89" opacity="0.32"/>
<line x1="619.92" y1="837.08" x2="1447.2" y2="866.38" stroke="oklch(0.86 0.15 85)" stroke-width="0.92" opacity="0.31"/>
<line x1="616.94" y1="859.77" x2="1343.7" y2="1027.17" stroke="oklch(0.86 0.15 85)" stroke-width="0.7" opacity="0.3"/>
<line x1="607.82" y1="885.52" x2="1328.69" y2="1237.79" stroke="oklch(0.86 0.15 85)" stroke-width="1.23" opacity="0.31"/>
<line x1="592.14" y1="909.71" x2="1078.34" y2="1315.32" stroke="oklch(0.86 0.15 85)" stroke-width="0.81" opacity="0.32"/>
<line x1="570.75" y1="929.76" x2="946.98" y2="1445.24" stroke="oklch(0.86 0.15 85)" stroke-width="0.66" opacity="0.27"/>
<line x1="556.1" y1="938.92" x2="798.55" y2="1397.42" stroke="oklch(0.86 0.15 85)" stroke-width="1.34" opacity="0.22"/>
<line x1="525.83" y1="950.02" x2="698.06" y2="1731.4" stroke="oklch(0.86 0.15 85)" stroke-width="1.69" opacity="0.27"/>
<line x1="498.81" y1="952.83" x2="492.16" y2="1620.81" stroke="oklch(0.86 0.15 85)" stroke-width="0.87" opacity="0.12"/>
<line x1="472.41" y1="949.62" x2="275.53" y2="1782.89" stroke="oklch(0.86 0.15 85)" stroke-width="0.6" opacity="0.26"/>
<line x1="452.1" y1="942.86" x2="143.45" y2="1651.78" stroke="oklch(0.86 0.15 85)" stroke-width="1.18" opacity="0.22"/>
<line x1="425.65" y1="927.03" x2="34.74" y2="1422.27" stroke="oklch(0.86 0.15 85)" stroke-width="1.1" opacity="0.16"/>
<line x1="405.92" y1="907.32" x2="-22.3" y2="1246.34" stroke="oklch(0.86 0.15 85)" stroke-width="0.76" opacity="0.31"/>
<line x1="392.02" y1="885.18" x2="-116.09" y2="1131.47" stroke="oklch(0.86 0.15 85)" stroke-width="0.76" opacity="0.21"/>
<line x1="385.3" y1="868.11" x2="-263.26" y2="1067.54" stroke="oklch(0.86 0.15 85)" stroke-width="0.85" opacity="0.17"/>
<line x1="380.21" y1="839.91" x2="-407.81" y2="886.42" stroke="oklch(0.86 0.15 85)" stroke-width="0.72" opacity="0.18"/>
<line x1="380.77" y1="819.3" x2="-177.46" y2="755.91" stroke="oklch(0.86 0.15 85)" stroke-width="0.94" opacity="0.27"/>
<line x1="389.64" y1="785.72" x2="-166.94" y2="548.09" stroke="oklch(0.86 0.15 85)" stroke-width="0.95" opacity="0.28"/>
<line x1="401.79" y1="763.88" x2="-16.64" y2="470.11" stroke="oklch(0.86 0.15 85)" stroke-width="1.23" opacity="0.26"/>
<line x1="416.57" y1="746.58" x2="-41.68" y2="272.82" stroke="oklch(0.86 0.15 85)" stroke-width="0.77" opacity="0.3"/>
<line x1="440.11" y1="728.85" x2="224.87" y2="355.08" stroke="oklch(0.86 0.15 85)" stroke-width="1.23" opacity="0.2"/>
<line x1="456.64" y1="720.94" x2="297.94" y2="311.37" stroke="oklch(0.86 0.15 85)" stroke-width="1.19" opacity="0.13"/>
<line x1="487.89" y1="713.45" x2="407.26" y2="-81.17" stroke="oklch(0.86 0.15 85)" stroke-width="1.28" opacity="0.37"/>
<line x1="511.34" y1="713.37" x2="582.96" y2="-40.89" stroke="oklch(0.86 0.15 85)" stroke-width="0.65" opacity="0.4"/>
<line x1="538.2" y1="719.08" x2="734.87" y2="133.44" stroke="oklch(0.86 0.15 85)" stroke-width="1.01" opacity="0.17"/>
<line x1="560.23" y1="729.05" x2="799.39" y2="316.95" stroke="oklch(0.86 0.15 85)" stroke-width="1.69" opacity="0.17"/>
<line x1="579.76" y1="743.18" x2="994.46" y2="276.96" stroke="oklch(0.86 0.15 85)" stroke-width="1.65" opacity="0.28"/>
<line x1="601.08" y1="768.17" x2="1143.72" y2="421" stroke="oklch(0.86 0.15 85)" stroke-width="1.26" opacity="0.36"/>
<line x1="611.01" y1="787.27" x2="1046.37" y2="608.58" stroke="oklch(0.86 0.15 85)" stroke-width="0.51" opacity="0.26"/>
<line x1="618.38" y1="813.18" x2="1013.43" y2="747.57" stroke="oklch(0.86 0.15 85)" stroke-width="0.53" opacity="0.38"/>
    </g>
    <circle cx="331.99" cy="449.02" r="376.34" fill="none" stroke="oklch(0.95 0.02 90)" stroke-width="2.5" opacity="0.5"/>
  </g>
  <rect width="1000" height="1250" filter="url(#grain)" opacity="0.12" style="mix-blend-mode:overlay"/>
</svg>
