<svg xmlns="http://www.w3.org/2000/svg" viewBox="0 0 1000 1250" width="1000" height="1250" role="img" aria-label="沢風大過のイメージ">
  <title>沢風大過（第28卦 ䷛）</title>
  <defs>
    <linearGradient id="bg" x1="0" y1="0" x2="0" y2="1">
      <stop offset="0%" stop-color="oklch(0.22 0.05 195)"/>
      <stop offset="100%" stop-color="oklch(0.15 0.05 160)"/>
    </linearGradient>
    <linearGradient id="fadeDown" x1="0" y1="0" x2="0" y2="1">
      <stop offset="47.83%" stop-color="#fff"/>
      <stop offset="58.6%" stop-color="#000"/>
    </linearGradient>
    <linearGradient id="fadeUp" x1="0" y1="0" x2="0" y2="1">
      <stop offset="47.83%" stop-color="#000"/>
      <stop offset="58.6%" stop-color="#fff"/>
    </linearGradient>
    <mask id="maskUpper"><rect width="1000" height="1250" fill="url(#fadeDown)"/></mask>
    <mask id="maskLower"><rect width="1000" height="1250" fill="url(#fadeUp)"/></mask>
    <filter id="grain">
      <feTurbulence type="fractalNoise" baseFrequency="0.85" numOctaves="3" seed="28"/>
      <feColorMatrix type="saturate" values="0"/>
    </filter>
    <clipPath id="frame"><rect width="1000" height="1250"/></clipPath>
  </defs>
  <rect width="1000" height="1250" fill="url(#bg)"/>
  <g clip-path="url(#frame)">
    <g mask="url(#maskUpper)">
<ellipse cx="621.03" cy="371.04" rx="23.41" ry="7.49" fill="none" stroke="oklch(0.78 0.19 195)" stroke-width="1.06" opacity="0.36"/>
<ellipse cx="621.03" cy="371.04" rx="46.82" ry="14.98" fill="none" stroke="oklch(0.86 0.15 195)" stroke-width="0.87" opacity="0.33"/>
<ellipse cx="621.03" cy="371.04" rx="70.24" ry="22.48" fill="none" stroke="oklch(0.86 0.15 195)" stroke-width="0.62" opacity="0.29"/>
<ellipse cx="621.03" cy="371.04" rx="93.65" ry="29.97" fill="none" stroke="oklch(0.86 0.15 195)" stroke-width="1.52" opacity="0.26"/>
<ellipse cx="621.03" cy="371.04" rx="117.06" ry="37.46" fill="none" stroke="oklch(0.78 0.19 195)" stroke-width="0.94" opacity="0.22"/>
<ellipse cx="621.03" cy="371.04" rx="140.47" ry="44.95" fill="none" stroke="oklch(0.86 0.15 195)" stroke-width="1.68" opacity="0.19"/>
<ellipse cx="621.03" cy="371.04" rx="163.88" ry="52.44" fill="none" stroke="oklch(0.86 0.15 195)" stroke-width="0.75" opacity="0.15"/>
<ellipse cx="290.09" cy="471.95" rx="22.03" ry="7.05" fill="none" stroke="oklch(0.78 0.19 195)" stroke-width="0.75" opacity="0.38"/>
<ellipse cx="290.09" cy="471.95" rx="44.05" ry="14.1" fill="none" stroke="oklch(0.86 0.15 195)" stroke-width="1.57" opacity="0.36"/>
<ellipse cx="290.09" cy="471.95" rx="66.08" ry="21.15" fill="none" stroke="oklch(0.86 0.15 195)" stroke-width="2.17" opacity="0.34"/>
<ellipse cx="290.09" cy="471.95" rx="88.11" ry="28.19" fill="none" stroke="oklch(0.86 0.15 195)" stroke-width="1.37" opacity="0.32"/>
<ellipse cx="290.09" cy="471.95" rx="110.14" ry="35.24" fill="none" stroke="oklch(0.78 0.19 195)" stroke-width="1.65" opacity="0.3"/>
<ellipse cx="290.09" cy="471.95" rx="132.16" ry="42.29" fill="none" stroke="oklch(0.86 0.15 195)" stroke-width="1.3" opacity="0.28"/>
<ellipse cx="290.09" cy="471.95" rx="154.19" ry="49.34" fill="none" stroke="oklch(0.86 0.15 195)" stroke-width="0.87" opacity="0.25"/>
<ellipse cx="290.09" cy="471.95" rx="176.22" ry="56.39" fill="none" stroke="oklch(0.86 0.15 195)" stroke-width="2.24" opacity="0.23"/>
<ellipse cx="290.09" cy="471.95" rx="198.24" ry="63.44" fill="none" stroke="oklch(0.78 0.19 195)" stroke-width="1.8" opacity="0.21"/>
<ellipse cx="290.09" cy="471.95" rx="220.27" ry="70.49" fill="none" stroke="oklch(0.86 0.15 195)" stroke-width="1.69" opacity="0.19"/>
<ellipse cx="290.09" cy="471.95" rx="242.3" ry="77.54" fill="none" stroke="oklch(0.86 0.15 195)" stroke-width="0.96" opacity="0.17"/>
<ellipse cx="290.09" cy="471.95" rx="264.33" ry="84.58" fill="none" stroke="oklch(0.86 0.15 195)" stroke-width="0.6" opacity="0.15"/>
<ellipse cx="190.68" cy="169.62" rx="65.2" ry="20.87" fill="none" stroke="oklch(0.78 0.19 195)" stroke-width="0.96" opacity="0.36"/>
<ellipse cx="190.68" cy="169.62" rx="130.41" ry="41.73" fill="none" stroke="oklch(0.86 0.15 195)" stroke-width="1.85" opacity="0.32"/>
<ellipse cx="190.68" cy="169.62" rx="195.61" ry="62.6" fill="none" stroke="oklch(0.86 0.15 195)" stroke-width="2.53" opacity="0.28"/>
<ellipse cx="190.68" cy="169.62" rx="260.82" ry="83.46" fill="none" stroke="oklch(0.86 0.15 195)" stroke-width="1.44" opacity="0.23"/>
<ellipse cx="190.68" cy="169.62" rx="326.02" ry="104.33" fill="none" stroke="oklch(0.78 0.19 195)" stroke-width="1.57" opacity="0.19"/>
<ellipse cx="190.68" cy="169.62" rx="391.23" ry="125.19" fill="none" stroke="oklch(0.86 0.15 195)" stroke-width="2.02" opacity="0.15"/>
<ellipse cx="653.05" cy="184.42" rx="34.96" ry="11.19" fill="none" stroke="oklch(0.78 0.19 195)" stroke-width="2.15" opacity="0.36"/>
<ellipse cx="653.05" cy="184.42" rx="69.91" ry="22.37" fill="none" stroke="oklch(0.86 0.15 195)" stroke-width="2.04" opacity="0.32"/>
<ellipse cx="653.05" cy="184.42" rx="104.87" ry="33.56" fill="none" stroke="oklch(0.86 0.15 195)" stroke-width="1.62" opacity="0.28"/>
<ellipse cx="653.05" cy="184.42" rx="139.82" ry="44.74" fill="none" stroke="oklch(0.86 0.15 195)" stroke-width="1.69" opacity="0.23"/>
<ellipse cx="653.05" cy="184.42" rx="174.78" ry="55.93" fill="none" stroke="oklch(0.78 0.19 195)" stroke-width="2.41" opacity="0.19"/>
<ellipse cx="653.05" cy="184.42" rx="209.73" ry="67.11" fill="none" stroke="oklch(0.86 0.15 195)" stroke-width="2.15" opacity="0.15"/>
<ellipse cx="801.98" cy="265.92" rx="29.39" ry="9.4" fill="none" stroke="oklch(0.78 0.19 195)" stroke-width="1.61" opacity="0.38"/>
<ellipse cx="801.98" cy="265.92" rx="58.77" ry="18.81" fill="none" stroke="oklch(0.86 0.15 195)" stroke-width="2.34" opacity="0.36"/>
<ellipse cx="801.98" cy="265.92" rx="88.16" ry="28.21" fill="none" stroke="oklch(0.86 0.15 195)" stroke-width="1.55" opacity="0.34"/>
<ellipse cx="801.98" cy="265.92" rx="117.55" ry="37.62" fill="none" stroke="oklch(0.86 0.15 195)" stroke-width="1.69" opacity="0.32"/>
<ellipse cx="801.98" cy="265.92" rx="146.94" ry="47.02" fill="none" stroke="oklch(0.78 0.19 195)" stroke-width="1.18" opacity="0.3"/>
<ellipse cx="801.98" cy="265.92" rx="176.32" ry="56.42" fill="none" stroke="oklch(0.86 0.15 195)" stroke-width="2.14" opacity="0.28"/>
<ellipse cx="801.98" cy="265.92" rx="205.71" ry="65.83" fill="none" stroke="oklch(0.86 0.15 195)" stroke-width="1.35" opacity="0.25"/>
<ellipse cx="801.98" cy="265.92" rx="235.1" ry="75.23" fill="none" stroke="oklch(0.86 0.15 195)" stroke-width="2.42" opacity="0.23"/>
<ellipse cx="801.98" cy="265.92" rx="264.48" ry="84.64" fill="none" stroke="oklch(0.78 0.19 195)" stroke-width="0.74" opacity="0.21"/>
<ellipse cx="801.98" cy="265.92" rx="293.87" ry="94.04" fill="none" stroke="oklch(0.86 0.15 195)" stroke-width="2.39" opacity="0.19"/>
<ellipse cx="801.98" cy="265.92" rx="323.26" ry="103.44" fill="none" stroke="oklch(0.86 0.15 195)" stroke-width="1.3" opacity="0.17"/>
<ellipse cx="801.98" cy="265.92" rx="352.65" ry="112.85" fill="none" stroke="oklch(0.86 0.15 195)" stroke-width="1.86" opacity="0.15"/>
<rect x="652.37" y="306.73" width="11.92" height="1.4" fill="oklch(0.78 0.19 195)" opacity="0.35"/>
<rect x="636.03" y="348.52" width="8.56" height="1.4" fill="oklch(0.78 0.19 195)" opacity="0.14"/>
<rect x="124.17" y="333.03" width="20.98" height="1.4" fill="oklch(0.78 0.19 195)" opacity="0.13"/>
<rect x="242.5" y="540.52" width="29.02" height="1.4" fill="oklch(0.78 0.19 195)" opacity="0.3"/>
<rect x="88.2" y="414.46" width="7.63" height="1.4" fill="oklch(0.78 0.19 195)" opacity="0.33"/>
<rect x="865.76" y="525.77" width="17.56" height="1.4" fill="oklch(0.78 0.19 195)" opacity="0.14"/>
<rect x="397.84" y="343.67" width="8.89" height="1.4" fill="oklch(0.78 0.19 195)" opacity="0.43"/>
<rect x="328.59" y="285.78" width="28.84" height="1.4" fill="oklch(0.78 0.19 195)" opacity="0.33"/>
<rect x="184.56" y="91.49" width="6.89" height="1.4" fill="oklch(0.78 0.19 195)" opacity="0.25"/>
<rect x="379.54" y="369.6" width="19.87" height="1.4" fill="oklch(0.78 0.19 195)" opacity="0.21"/>
<rect x="578.17" y="567.01" width="17.97" height="1.4" fill="oklch(0.78 0.19 195)" opacity="0.27"/>
<rect x="893.63" y="677.49" width="28.74" height="1.4" fill="oklch(0.78 0.19 195)" opacity="0.16"/>
<rect x="661.82" y="216.99" width="5.27" height="1.4" fill="oklch(0.78 0.19 195)" opacity="0.2"/>
<rect x="194.48" y="388.22" width="23.99" height="1.4" fill="oklch(0.78 0.19 195)" opacity="0.28"/>
<rect x="834.65" y="333" width="13.2" height="1.4" fill="oklch(0.78 0.19 195)" opacity="0.35"/>
<rect x="577.37" y="252.11" width="8.06" height="1.4" fill="oklch(0.78 0.19 195)" opacity="0.27"/>
<rect x="977.9" y="75.35" width="17.63" height="1.4" fill="oklch(0.78 0.19 195)" opacity="0.14"/>
<rect x="579.96" y="564.09" width="21.26" height="1.4" fill="oklch(0.78 0.19 195)" opacity="0.17"/>
<rect x="590.85" y="613.74" width="24.81" height="1.4" fill="oklch(0.78 0.19 195)" opacity="0.43"/>
<rect x="493.48" y="687.01" width="9.03" height="1.4" fill="oklch(0.78 0.19 195)" opacity="0.38"/>
<rect x="98.71" y="281.87" width="29.34" height="1.4" fill="oklch(0.78 0.19 195)" opacity="0.16"/>
<rect x="399.93" y="625.29" width="24.25" height="1.4" fill="oklch(0.78 0.19 195)" opacity="0.4"/>
<rect x="305.98" y="85.72" width="11.92" height="1.4" fill="oklch(0.78 0.19 195)" opacity="0.15"/>
<rect x="35.87" y="300.42" width="16.94" height="1.4" fill="oklch(0.78 0.19 195)" opacity="0.1"/>
<rect x="157.63" y="193.35" width="23.1" height="1.4" fill="oklch(0.78 0.19 195)" opacity="0.4"/>
<rect x="400.74" y="61.42" width="16.88" height="1.4" fill="oklch(0.78 0.19 195)" opacity="0.16"/>
<rect x="839.46" y="621.11" width="6.47" height="1.4" fill="oklch(0.78 0.19 195)" opacity="0.32"/>
<rect x="286.51" y="202.46" width="9.95" height="1.4" fill="oklch(0.78 0.19 195)" opacity="0.14"/>
<rect x="31.62" y="497.83" width="28.5" height="1.4" fill="oklch(0.78 0.19 195)" opacity="0.26"/>
<rect x="595.92" y="118.22" width="10.7" height="1.4" fill="oklch(0.78 0.19 195)" opacity="0.13"/>
<rect x="993.64" y="230.27" width="27.64" height="1.4" fill="oklch(0.78 0.19 195)" opacity="0.33"/>
<rect x="282.76" y="140.08" width="14.27" height="1.4" fill="oklch(0.78 0.19 195)" opacity="0.43"/>
<rect x="486.43" y="338.62" width="9.27" height="1.4" fill="oklch(0.78 0.19 195)" opacity="0.11"/>
<rect x="619.56" y="596.81" width="7.99" height="1.4" fill="oklch(0.78 0.19 195)" opacity="0.19"/>
<rect x="260.18" y="87.6" width="10.93" height="1.4" fill="oklch(0.78 0.19 195)" opacity="0.44"/>
<rect x="967.92" y="645.83" width="9.3" height="1.4" fill="oklch(0.78 0.19 195)" opacity="0.36"/>
<rect x="575.75" y="517.46" width="20.5" height="1.4" fill="oklch(0.78 0.19 195)" opacity="0.21"/>
<rect x="666.66" y="595.96" width="28.18" height="1.4" fill="oklch(0.78 0.19 195)" opacity="0.34"/>
<rect x="654.43" y="147.27" width="19.53" height="1.4" fill="oklch(0.78 0.19 195)" opacity="0.23"/>
<rect x="373.2" y="331.52" width="18.13" height="1.4" fill="oklch(0.78 0.19 195)" opacity="0.1"/>
<rect x="94.04" y="13.73" width="14.76" height="1.4" fill="oklch(0.78 0.19 195)" opacity="0.12"/>
<rect x="694.76" y="359.96" width="15.73" height="1.4" fill="oklch(0.78 0.19 195)" opacity="0.33"/>
<rect x="426.18" y="468.07" width="12.43" height="1.4" fill="oklch(0.78 0.19 195)" opacity="0.43"/>
<rect x="530.28" y="231.01" width="13.09" height="1.4" fill="oklch(0.78 0.19 195)" opacity="0.19"/>
<rect x="760.91" y="330" width="5.77" height="1.4" fill="oklch(0.78 0.19 195)" opacity="0.36"/>
<rect x="238.6" y="1.42" width="26.38" height="1.4" fill="oklch(0.78 0.19 195)" opacity="0.41"/>
<rect x="447.54" y="2.76" width="13.24" height="1.4" fill="oklch(0.78 0.19 195)" opacity="0.25"/>
<rect x="815.34" y="116.87" width="28.22" height="1.4" fill="oklch(0.78 0.19 195)" opacity="0.16"/>
<rect x="700.46" y="400.21" width="28.53" height="1.4" fill="oklch(0.78 0.19 195)" opacity="0.27"/>
<rect x="911.81" y="98.26" width="14.81" height="1.4" fill="oklch(0.78 0.19 195)" opacity="0.24"/>
<rect x="703.39" y="409.42" width="25.08" height="1.4" fill="oklch(0.78 0.19 195)" opacity="0.27"/>
<rect x="479.81" y="301.14" width="5.05" height="1.4" fill="oklch(0.78 0.19 195)" opacity="0.22"/>
<rect x="224.27" y="522.08" width="25.37" height="1.4" fill="oklch(0.78 0.19 195)" opacity="0.19"/>
<rect x="858.65" y="137.58" width="20.62" height="1.4" fill="oklch(0.78 0.19 195)" opacity="0.11"/>
<rect x="495.29" y="631.44" width="17.91" height="1.4" fill="oklch(0.78 0.19 195)" opacity="0.19"/>
<rect x="408.23" y="217.45" width="7.57" height="1.4" fill="oklch(0.78 0.19 195)" opacity="0.13"/>
<rect x="744.85" y="6.49" width="24.8" height="1.4" fill="oklch(0.78 0.19 195)" opacity="0.15"/>
<rect x="913.43" y="198.34" width="15.06" height="1.4" fill="oklch(0.78 0.19 195)" opacity="0.29"/>
<rect x="74.87" y="415.47" width="12.98" height="1.4" fill="oklch(0.78 0.19 195)" opacity="0.41"/>
<rect x="7.78" y="360.92" width="28.1" height="1.4" fill="oklch(0.78 0.19 195)" opacity="0.27"/>
<rect x="462.69" y="512.8" width="24.97" height="1.4" fill="oklch(0.78 0.19 195)" opacity="0.14"/>
<rect x="11.71" y="210.12" width="17.52" height="1.4" fill="oklch(0.78 0.19 195)" opacity="0.43"/>
<rect x="833.8" y="34.76" width="4.71" height="1.4" fill="oklch(0.78 0.19 195)" opacity="0.34"/>
<rect x="129.34" y="670.23" width="23.53" height="1.4" fill="oklch(0.78 0.19 195)" opacity="0.14"/>
<rect x="628.76" y="518.71" width="18.41" height="1.4" fill="oklch(0.78 0.19 195)" opacity="0.21"/>
<rect x="697.54" y="682.81" width="18.01" height="1.4" fill="oklch(0.78 0.19 195)" opacity="0.41"/>
<rect x="561.16" y="727.39" width="7.41" height="1.4" fill="oklch(0.78 0.19 195)" opacity="0.17"/>
<rect x="313.57" y="193.31" width="17.72" height="1.4" fill="oklch(0.78 0.19 195)" opacity="0.33"/>
<rect x="289.85" y="540.51" width="21.55" height="1.4" fill="oklch(0.78 0.19 195)" opacity="0.4"/>
<rect x="506.74" y="225.52" width="25.63" height="1.4" fill="oklch(0.78 0.19 195)" opacity="0.18"/>
    </g>
    <g mask="url(#maskLower)">
<path d="M -4.52 1138.49 C 192.52 1072.65, 455.23 1204.33, 652.27 1125.32" fill="none" stroke="oklch(0.78 0.1 160)" stroke-width="1.86" opacity="0.2" stroke-linecap="round"/>
<path d="M 129.71 965.32 C 340.88 938.6, 622.44 992.04, 833.6 959.97" fill="none" stroke="oklch(0.86 0.15 160)" stroke-width="2.33" opacity="0.32" stroke-linecap="round"/>
<path d="M 147.97 1079.26 C 399.26 1018.78, 734.32 1139.74, 985.61 1067.16" fill="none" stroke="oklch(0.86 0.15 160)" stroke-width="1.74" opacity="0.25" stroke-linecap="round"/>
<path d="M -75.78 1098.5 C 81.81 1067.67, 291.94 1129.33, 449.53 1092.34" fill="none" stroke="oklch(0.86 0.15 160)" stroke-width="0.51" opacity="0.3" stroke-linecap="round"/>
<path d="M 74.18 669.09 C 360.08 617.38, 741.27 720.81, 1027.16 658.75" fill="none" stroke="oklch(0.86 0.15 160)" stroke-width="1.16" opacity="0.16" stroke-linecap="round"/>
<path d="M 145.36 1014.85 C 357.92 918.56, 641.33 1111.14, 853.88 995.59" fill="none" stroke="oklch(0.86 0.15 160)" stroke-width="1.07" opacity="0.27" stroke-linecap="round"/>
<path d="M 4.16 882.08 C 179.54 768.66, 413.38 995.51, 588.76 859.4" fill="none" stroke="oklch(0.86 0.15 160)" stroke-width="2.27" opacity="0.26" stroke-linecap="round"/>
<path d="M 197.02 854.45 C 472.17 826.12, 839.02 882.79, 1114.17 848.79" fill="none" stroke="oklch(0.78 0.1 160)" stroke-width="0.66" opacity="0.21" stroke-linecap="round"/>
<path d="M 78.84 891.79 C 269.75 1034.36, 524.28 749.22, 715.18 920.3" fill="none" stroke="oklch(0.86 0.15 160)" stroke-width="0.84" opacity="0.4" stroke-linecap="round"/>
<path d="M 45.26 1112.35 C 297.66 1191.66, 634.2 1033.03, 886.6 1128.21" fill="none" stroke="oklch(0.86 0.15 160)" stroke-width="1.14" opacity="0.29" stroke-linecap="round"/>
<path d="M 184.3 1032.57 C 428.7 1171.83, 754.55 893.32, 998.94 1060.43" fill="none" stroke="oklch(0.86 0.15 160)" stroke-width="2.41" opacity="0.21" stroke-linecap="round"/>
<path d="M 122.26 800.24 C 296.49 693.59, 528.8 906.89, 703.04 778.91" fill="none" stroke="oklch(0.86 0.15 160)" stroke-width="1.29" opacity="0.28" stroke-linecap="round"/>
<path d="M 136.94 1037.34 C 437.6 1117.72, 838.49 956.95, 1139.15 1053.41" fill="none" stroke="oklch(0.86 0.15 160)" stroke-width="1.65" opacity="0.45" stroke-linecap="round"/>
<path d="M -67.36 653.74 C 252.88 517.89, 679.87 789.59, 1000.11 626.57" fill="none" stroke="oklch(0.86 0.15 160)" stroke-width="2.11" opacity="0.38" stroke-linecap="round"/>
<path d="M 144.93 969.88 C 475.1 856.17, 915.32 1083.6, 1245.49 947.14" fill="none" stroke="oklch(0.78 0.1 160)" stroke-width="1.36" opacity="0.18" stroke-linecap="round"/>
<path d="M -86.57 788.67 C 106.21 736.19, 363.26 841.15, 556.05 778.18" fill="none" stroke="oklch(0.86 0.15 160)" stroke-width="1.23" opacity="0.28" stroke-linecap="round"/>
<path d="M -65.19 795.2 C 248.23 796.13, 666.13 794.28, 979.56 795.39" fill="none" stroke="oklch(0.86 0.15 160)" stroke-width="0.58" opacity="0.13" stroke-linecap="round"/>
<path d="M 191.33 911.94 C 409.92 950.51, 701.37 873.38, 919.95 919.66" fill="none" stroke="oklch(0.86 0.15 160)" stroke-width="1.46" opacity="0.18" stroke-linecap="round"/>
<path d="M 177.79 1132.44 C 488.76 1281.71, 903.39 983.18, 1214.36 1162.3" fill="none" stroke="oklch(0.86 0.15 160)" stroke-width="0.65" opacity="0.28" stroke-linecap="round"/>
<path d="M 5.25 1074.32 C 271.55 964.13, 626.61 1184.51, 892.91 1052.28" fill="none" stroke="oklch(0.86 0.15 160)" stroke-width="1.92" opacity="0.3" stroke-linecap="round"/>
<path d="M -62.96 755.14 C 283.81 687.8, 746.18 822.47, 1092.96 741.67" fill="none" stroke="oklch(0.86 0.15 160)" stroke-width="1.16" opacity="0.2" stroke-linecap="round"/>
<path d="M 50.81 929.87 C 252.52 879.13, 521.47 980.6, 723.18 919.72" fill="none" stroke="oklch(0.78 0.1 160)" stroke-width="0.78" opacity="0.45" stroke-linecap="round"/>
<path d="M -84.07 654.42 C 193.71 773.75, 564.09 535.1, 841.88 678.29" fill="none" stroke="oklch(0.86 0.15 160)" stroke-width="2.36" opacity="0.33" stroke-linecap="round"/>
<path d="M -64.24 735.64 C 267.91 697.19, 710.78 774.09, 1042.93 727.95" fill="none" stroke="oklch(0.86 0.15 160)" stroke-width="2.02" opacity="0.25" stroke-linecap="round"/>
<path d="M 104.51 1114.14 C 284.95 1267.39, 525.54 960.9, 705.97 1144.79" fill="none" stroke="oklch(0.86 0.15 160)" stroke-width="1.83" opacity="0.33" stroke-linecap="round"/>
<path d="M 96.47 864.11 C 409.42 936.57, 826.68 791.65, 1139.63 878.6" fill="none" stroke="oklch(0.86 0.15 160)" stroke-width="2.48" opacity="0.27" stroke-linecap="round"/>
<path d="M 102.19 820.19 C 451.73 700.07, 917.78 940.32, 1267.32 796.17" fill="none" stroke="oklch(0.86 0.15 160)" stroke-width="0.78" opacity="0.3" stroke-linecap="round"/>
<path d="M 30.16 751.03 C 304.14 654.99, 669.44 847.06, 943.42 731.82" fill="none" stroke="oklch(0.86 0.15 160)" stroke-width="1.98" opacity="0.12" stroke-linecap="round"/>
<path d="M 68.46 773.46 C 263.46 660.83, 523.48 886.1, 718.49 750.94" fill="none" stroke="oklch(0.78 0.1 160)" stroke-width="0.95" opacity="0.12" stroke-linecap="round"/>
<path d="M -91.83 997.61 C 108.47 1142.54, 375.53 852.68, 575.82 1026.6" fill="none" stroke="oklch(0.86 0.15 160)" stroke-width="2.28" opacity="0.24" stroke-linecap="round"/>
<path d="M 159.46 789.92 C 340.75 783.98, 582.48 795.86, 763.78 788.74" fill="none" stroke="oklch(0.86 0.15 160)" stroke-width="0.99" opacity="0.31" stroke-linecap="round"/>
<path d="M 166.48 1234.16 C 467.52 1085.2, 868.91 1383.13, 1169.95 1204.37" fill="none" stroke="oklch(0.86 0.15 160)" stroke-width="1.41" opacity="0.4" stroke-linecap="round"/>
<path d="M -13.57 636.69 C 265.74 664.28, 638.15 609.1, 917.47 642.21" fill="none" stroke="oklch(0.86 0.15 160)" stroke-width="1.7" opacity="0.29" stroke-linecap="round"/>
<path d="M 197.85 1098.98 C 358.44 1226.37, 572.56 971.58, 733.15 1124.46" fill="none" stroke="oklch(0.86 0.15 160)" stroke-width="0.65" opacity="0.31" stroke-linecap="round"/>
<path d="M -78.76 899.31 C 101.12 895.91, 340.96 902.72, 520.83 898.63" fill="none" stroke="oklch(0.86 0.15 160)" stroke-width="0.7" opacity="0.35" stroke-linecap="round"/>
<path d="M 84.74 740.62 C 427.02 724.62, 883.4 756.63, 1225.69 737.42" fill="none" stroke="oklch(0.78 0.1 160)" stroke-width="1.26" opacity="0.33" stroke-linecap="round"/>
<path d="M -12.56 1005.22 C 170.91 903.17, 415.53 1107.28, 599 984.81" fill="none" stroke="oklch(0.86 0.15 160)" stroke-width="0.61" opacity="0.29" stroke-linecap="round"/>
<path d="M 64.96 661.55 C 237.62 672.15, 467.83 650.96, 640.48 663.67" fill="none" stroke="oklch(0.86 0.15 160)" stroke-width="1.52" opacity="0.46" stroke-linecap="round"/>
<path d="M 91.83 605.64 C 307.71 463.83, 595.56 747.45, 811.45 577.28" fill="none" stroke="oklch(0.86 0.15 160)" stroke-width="1.07" opacity="0.21" stroke-linecap="round"/>
<path d="M -2.34 1171.29 C 280.63 1081.33, 657.92 1261.25, 940.89 1153.29" fill="none" stroke="oklch(0.86 0.15 160)" stroke-width="0.78" opacity="0.17" stroke-linecap="round"/>
<path d="M 63.57 689.33 C 403.53 790.25, 856.82 588.4, 1196.79 709.51" fill="none" stroke="oklch(0.86 0.15 160)" stroke-width="0.86" opacity="0.13" stroke-linecap="round"/>
<path d="M 77.17 1223.27 C 376.08 1266.59, 774.62 1179.95, 1073.53 1231.93" fill="none" stroke="oklch(0.86 0.15 160)" stroke-width="1.83" opacity="0.13" stroke-linecap="round"/>
<path d="M 122.06 674.37 C 427.82 635.22, 835.5 713.53, 1141.26 666.54" fill="none" stroke="oklch(0.78 0.1 160)" stroke-width="1.43" opacity="0.37" stroke-linecap="round"/>
<path d="M 50.38 1223.88 C 278.82 1202.47, 583.4 1245.29, 811.83 1219.6" fill="none" stroke="oklch(0.86 0.15 160)" stroke-width="2.11" opacity="0.16" stroke-linecap="round"/>
<path d="M 29.3 645.76 C 357.49 576.17, 795.07 715.35, 1123.25 631.84" fill="none" stroke="oklch(0.86 0.15 160)" stroke-width="1.22" opacity="0.33" stroke-linecap="round"/>
<path d="M 24.23 1123.57 C 223.56 976.45, 489.33 1270.69, 688.66 1094.15" fill="none" stroke="oklch(0.86 0.15 160)" stroke-width="0.68" opacity="0.33" stroke-linecap="round"/>
<path d="M 162.54 1102.31 C 449.32 1072.36, 831.68 1132.26, 1118.45 1096.32" fill="none" stroke="oklch(0.86 0.15 160)" stroke-width="1.72" opacity="0.18" stroke-linecap="round"/>
<path d="M 124.77 1179.36 C 480.99 1146.64, 955.95 1212.09, 1312.18 1172.82" fill="none" stroke="oklch(0.86 0.15 160)" stroke-width="2.5" opacity="0.17" stroke-linecap="round"/>
<path d="M -71.58 1213.26 C 240.69 1238.9, 657.06 1187.61, 969.33 1218.39" fill="none" stroke="oklch(0.86 0.15 160)" stroke-width="1.46" opacity="0.39" stroke-linecap="round"/>
<path d="M -14.65 1080.87 C 192.67 1114.38, 469.1 1047.36, 676.42 1087.57" fill="none" stroke="oklch(0.78 0.1 160)" stroke-width="2.29" opacity="0.27" stroke-linecap="round"/>
<path d="M 26.25 1042.09 C 205.2 1179.49, 443.81 904.69, 622.77 1069.57" fill="none" stroke="oklch(0.86 0.15 160)" stroke-width="0.74" opacity="0.28" stroke-linecap="round"/>
    </g>
    <line x1="80" y1="487.61" x2="920" y2="487.61" stroke="oklch(0.95 0.02 90)" stroke-width="2" opacity="0.5"/>
  </g>
  <rect width="1000" height="1250" filter="url(#grain)" opacity="0.12" style="mix-blend-mode:overlay"/>
</svg>
