<svg xmlns="http://www.w3.org/2000/svg" viewBox="0 0 1000 1250" width="1000" height="1250" role="img" aria-label="沢火革のイメージ">
  <title>沢火革（第49卦 ䷰）</title>
  <defs>
    <linearGradient id="bg" x1="0" y1="0" x2="0" y2="1">
      <stop offset="0%" stop-color="oklch(0.2 0.05 195)"/>
      <stop offset="100%" stop-color="oklch(0.16 0.05 35)"/>
    </linearGradient>
    <linearGradient id="fadeDown" x1="0" y1="0" x2="0" y2="1">
      <stop offset="48.5%" stop-color="#fff"/>
      <stop offset="61.58%" stop-color="#000"/>
    </linearGradient>
    <linearGradient id="fadeUp" x1="0" y1="0" x2="0" y2="1">
      <stop offset="48.5%" stop-color="#000"/>
      <stop offset="61.58%" stop-color="#fff"/>
    </linearGradient>
    <mask id="maskUpper"><rect width="1000" height="1250" fill="url(#fadeDown)"/></mask>
    <mask id="maskLower"><rect width="1000" height="1250" fill="url(#fadeUp)"/></mask>
    <filter id="grain">
      <feTurbulence type="fractalNoise" baseFrequency="0.85" numOctaves="3" seed="49"/>
      <feColorMatrix type="saturate" values="0"/>
    </filter>
    <clipPath id="frame"><rect width="1000" height="1250"/></clipPath>
  </defs>
  <rect width="1000" height="1250" fill="url(#bg)"/>
  <g clip-path="url(#frame)">
    <g mask="url(#maskUpper)">
<ellipse cx="506.4" cy="405.84" rx="35.41" ry="11.33" fill="none" stroke="oklch(0.78 0.19 195)" stroke-width="1.37" opacity="0.38"/>
<ellipse cx="506.4" cy="405.84" rx="70.82" ry="22.66" fill="none" stroke="oklch(0.86 0.15 195)" stroke-width="1.51" opacity="0.35"/>
<ellipse cx="506.4" cy="405.84" rx="106.23" ry="33.99" fill="none" stroke="oklch(0.86 0.15 195)" stroke-width="1.3" opacity="0.33"/>
<ellipse cx="506.4" cy="405.84" rx="141.64" ry="45.33" fill="none" stroke="oklch(0.86 0.15 195)" stroke-width="1.49" opacity="0.31"/>
<ellipse cx="506.4" cy="405.84" rx="177.06" ry="56.66" fill="none" stroke="oklch(0.78 0.19 195)" stroke-width="2.02" opacity="0.29"/>
<ellipse cx="506.4" cy="405.84" rx="212.47" ry="67.99" fill="none" stroke="oklch(0.86 0.15 195)" stroke-width="2.36" opacity="0.26"/>
<ellipse cx="506.4" cy="405.84" rx="247.88" ry="79.32" fill="none" stroke="oklch(0.86 0.15 195)" stroke-width="2.44" opacity="0.24"/>
<ellipse cx="506.4" cy="405.84" rx="283.29" ry="90.65" fill="none" stroke="oklch(0.86 0.15 195)" stroke-width="2.43" opacity="0.22"/>
<ellipse cx="506.4" cy="405.84" rx="318.7" ry="101.98" fill="none" stroke="oklch(0.78 0.19 195)" stroke-width="1.37" opacity="0.2"/>
<ellipse cx="506.4" cy="405.84" rx="354.11" ry="113.32" fill="none" stroke="oklch(0.86 0.15 195)" stroke-width="0.75" opacity="0.17"/>
<ellipse cx="506.4" cy="405.84" rx="389.52" ry="124.65" fill="none" stroke="oklch(0.86 0.15 195)" stroke-width="2.01" opacity="0.15"/>
<ellipse cx="176.43" cy="333.71" rx="26.05" ry="8.34" fill="none" stroke="oklch(0.78 0.19 195)" stroke-width="2.03" opacity="0.36"/>
<ellipse cx="176.43" cy="333.71" rx="52.11" ry="16.67" fill="none" stroke="oklch(0.86 0.15 195)" stroke-width="2.24" opacity="0.32"/>
<ellipse cx="176.43" cy="333.71" rx="78.16" ry="25.01" fill="none" stroke="oklch(0.86 0.15 195)" stroke-width="1.46" opacity="0.28"/>
<ellipse cx="176.43" cy="333.71" rx="104.21" ry="33.35" fill="none" stroke="oklch(0.86 0.15 195)" stroke-width="0.98" opacity="0.23"/>
<ellipse cx="176.43" cy="333.71" rx="130.27" ry="41.69" fill="none" stroke="oklch(0.78 0.19 195)" stroke-width="0.98" opacity="0.19"/>
<ellipse cx="176.43" cy="333.71" rx="156.32" ry="50.02" fill="none" stroke="oklch(0.86 0.15 195)" stroke-width="1.26" opacity="0.15"/>
<ellipse cx="689.17" cy="278.48" rx="27.73" ry="8.87" fill="none" stroke="oklch(0.78 0.19 195)" stroke-width="1.76" opacity="0.38"/>
<ellipse cx="689.17" cy="278.48" rx="55.45" ry="17.74" fill="none" stroke="oklch(0.86 0.15 195)" stroke-width="1.85" opacity="0.35"/>
<ellipse cx="689.17" cy="278.48" rx="83.18" ry="26.62" fill="none" stroke="oklch(0.86 0.15 195)" stroke-width="2.54" opacity="0.33"/>
<ellipse cx="689.17" cy="278.48" rx="110.9" ry="35.49" fill="none" stroke="oklch(0.86 0.15 195)" stroke-width="0.91" opacity="0.3"/>
<ellipse cx="689.17" cy="278.48" rx="138.63" ry="44.36" fill="none" stroke="oklch(0.78 0.19 195)" stroke-width="1.34" opacity="0.28"/>
<ellipse cx="689.17" cy="278.48" rx="166.35" ry="53.23" fill="none" stroke="oklch(0.86 0.15 195)" stroke-width="1.99" opacity="0.25"/>
<ellipse cx="689.17" cy="278.48" rx="194.08" ry="62.11" fill="none" stroke="oklch(0.86 0.15 195)" stroke-width="1.18" opacity="0.23"/>
<ellipse cx="689.17" cy="278.48" rx="221.81" ry="70.98" fill="none" stroke="oklch(0.86 0.15 195)" stroke-width="1.05" opacity="0.2"/>
<ellipse cx="689.17" cy="278.48" rx="249.53" ry="79.85" fill="none" stroke="oklch(0.78 0.19 195)" stroke-width="1.91" opacity="0.18"/>
<ellipse cx="689.17" cy="278.48" rx="277.26" ry="88.72" fill="none" stroke="oklch(0.86 0.15 195)" stroke-width="1.11" opacity="0.15"/>
<ellipse cx="691.46" cy="637.7" rx="21.11" ry="6.76" fill="none" stroke="oklch(0.78 0.19 195)" stroke-width="1.54" opacity="0.37"/>
<ellipse cx="691.46" cy="637.7" rx="42.23" ry="13.51" fill="none" stroke="oklch(0.86 0.15 195)" stroke-width="1.17" opacity="0.34"/>
<ellipse cx="691.46" cy="637.7" rx="63.34" ry="20.27" fill="none" stroke="oklch(0.86 0.15 195)" stroke-width="1.05" opacity="0.31"/>
<ellipse cx="691.46" cy="637.7" rx="84.46" ry="27.03" fill="none" stroke="oklch(0.86 0.15 195)" stroke-width="1.78" opacity="0.28"/>
<ellipse cx="691.46" cy="637.7" rx="105.57" ry="33.78" fill="none" stroke="oklch(0.78 0.19 195)" stroke-width="2.39" opacity="0.24"/>
<ellipse cx="691.46" cy="637.7" rx="126.69" ry="40.54" fill="none" stroke="oklch(0.86 0.15 195)" stroke-width="2.58" opacity="0.21"/>
<ellipse cx="691.46" cy="637.7" rx="147.8" ry="47.3" fill="none" stroke="oklch(0.86 0.15 195)" stroke-width="2.3" opacity="0.18"/>
<ellipse cx="691.46" cy="637.7" rx="168.92" ry="54.05" fill="none" stroke="oklch(0.86 0.15 195)" stroke-width="1.72" opacity="0.15"/>
<ellipse cx="738.49" cy="461.47" rx="25.01" ry="8" fill="none" stroke="oklch(0.78 0.19 195)" stroke-width="1.67" opacity="0.38"/>
<ellipse cx="738.49" cy="461.47" rx="50.02" ry="16.01" fill="none" stroke="oklch(0.86 0.15 195)" stroke-width="2.09" opacity="0.36"/>
<ellipse cx="738.49" cy="461.47" rx="75.02" ry="24.01" fill="none" stroke="oklch(0.86 0.15 195)" stroke-width="1.5" opacity="0.34"/>
<ellipse cx="738.49" cy="461.47" rx="100.03" ry="32.01" fill="none" stroke="oklch(0.86 0.15 195)" stroke-width="2.53" opacity="0.32"/>
<ellipse cx="738.49" cy="461.47" rx="125.04" ry="40.01" fill="none" stroke="oklch(0.78 0.19 195)" stroke-width="1.33" opacity="0.3"/>
<ellipse cx="738.49" cy="461.47" rx="150.05" ry="48.02" fill="none" stroke="oklch(0.86 0.15 195)" stroke-width="0.61" opacity="0.28"/>
<ellipse cx="738.49" cy="461.47" rx="175.06" ry="56.02" fill="none" stroke="oklch(0.86 0.15 195)" stroke-width="2.49" opacity="0.25"/>
<ellipse cx="738.49" cy="461.47" rx="200.06" ry="64.02" fill="none" stroke="oklch(0.86 0.15 195)" stroke-width="1.01" opacity="0.23"/>
<ellipse cx="738.49" cy="461.47" rx="225.07" ry="72.02" fill="none" stroke="oklch(0.78 0.19 195)" stroke-width="2.32" opacity="0.21"/>
<ellipse cx="738.49" cy="461.47" rx="250.08" ry="80.03" fill="none" stroke="oklch(0.86 0.15 195)" stroke-width="1.35" opacity="0.19"/>
<ellipse cx="738.49" cy="461.47" rx="275.09" ry="88.03" fill="none" stroke="oklch(0.86 0.15 195)" stroke-width="1.39" opacity="0.17"/>
<ellipse cx="738.49" cy="461.47" rx="300.1" ry="96.03" fill="none" stroke="oklch(0.86 0.15 195)" stroke-width="0.78" opacity="0.15"/>
<ellipse cx="657.59" cy="262.81" rx="28.54" ry="9.13" fill="none" stroke="oklch(0.78 0.19 195)" stroke-width="1.15" opacity="0.36"/>
<ellipse cx="657.59" cy="262.81" rx="57.08" ry="18.27" fill="none" stroke="oklch(0.86 0.15 195)" stroke-width="1.52" opacity="0.32"/>
<ellipse cx="657.59" cy="262.81" rx="85.62" ry="27.4" fill="none" stroke="oklch(0.86 0.15 195)" stroke-width="1.66" opacity="0.28"/>
<ellipse cx="657.59" cy="262.81" rx="114.16" ry="36.53" fill="none" stroke="oklch(0.86 0.15 195)" stroke-width="1.06" opacity="0.23"/>
<ellipse cx="657.59" cy="262.81" rx="142.7" ry="45.66" fill="none" stroke="oklch(0.78 0.19 195)" stroke-width="1.54" opacity="0.19"/>
<ellipse cx="657.59" cy="262.81" rx="171.24" ry="54.8" fill="none" stroke="oklch(0.86 0.15 195)" stroke-width="0.93" opacity="0.15"/>
<ellipse cx="310" cy="191.17" rx="24.22" ry="7.75" fill="none" stroke="oklch(0.78 0.19 195)" stroke-width="2.36" opacity="0.38"/>
<ellipse cx="310" cy="191.17" rx="48.43" ry="15.5" fill="none" stroke="oklch(0.86 0.15 195)" stroke-width="0.89" opacity="0.35"/>
<ellipse cx="310" cy="191.17" rx="72.65" ry="23.25" fill="none" stroke="oklch(0.86 0.15 195)" stroke-width="1.35" opacity="0.33"/>
<ellipse cx="310" cy="191.17" rx="96.86" ry="31" fill="none" stroke="oklch(0.86 0.15 195)" stroke-width="2.56" opacity="0.31"/>
<ellipse cx="310" cy="191.17" rx="121.08" ry="38.74" fill="none" stroke="oklch(0.78 0.19 195)" stroke-width="1.62" opacity="0.29"/>
<ellipse cx="310" cy="191.17" rx="145.29" ry="46.49" fill="none" stroke="oklch(0.86 0.15 195)" stroke-width="2.17" opacity="0.26"/>
<ellipse cx="310" cy="191.17" rx="169.51" ry="54.24" fill="none" stroke="oklch(0.86 0.15 195)" stroke-width="1.51" opacity="0.24"/>
<ellipse cx="310" cy="191.17" rx="193.72" ry="61.99" fill="none" stroke="oklch(0.86 0.15 195)" stroke-width="1.42" opacity="0.22"/>
<ellipse cx="310" cy="191.17" rx="217.94" ry="69.74" fill="none" stroke="oklch(0.78 0.19 195)" stroke-width="1.43" opacity="0.2"/>
<ellipse cx="310" cy="191.17" rx="242.15" ry="77.49" fill="none" stroke="oklch(0.86 0.15 195)" stroke-width="1.43" opacity="0.17"/>
<ellipse cx="310" cy="191.17" rx="266.37" ry="85.24" fill="none" stroke="oklch(0.86 0.15 195)" stroke-width="1.12" opacity="0.15"/>
<rect x="914.37" y="266.82" width="6.63" height="1.4" fill="oklch(0.78 0.19 195)" opacity="0.2"/>
<rect x="444.51" y="89.19" width="28.11" height="1.4" fill="oklch(0.78 0.19 195)" opacity="0.1"/>
<rect x="256.02" y="366.57" width="24.49" height="1.4" fill="oklch(0.78 0.19 195)" opacity="0.34"/>
<rect x="251.51" y="342.65" width="8.42" height="1.4" fill="oklch(0.78 0.19 195)" opacity="0.32"/>
<rect x="128.1" y="14.25" width="8.99" height="1.4" fill="oklch(0.78 0.19 195)" opacity="0.33"/>
<rect x="182.33" y="495.14" width="16.89" height="1.4" fill="oklch(0.78 0.19 195)" opacity="0.19"/>
<rect x="217.37" y="717.2" width="28.59" height="1.4" fill="oklch(0.78 0.19 195)" opacity="0.28"/>
<rect x="128.03" y="323.89" width="29.99" height="1.4" fill="oklch(0.78 0.19 195)" opacity="0.41"/>
<rect x="758.9" y="29.96" width="22.02" height="1.4" fill="oklch(0.78 0.19 195)" opacity="0.34"/>
<rect x="36.49" y="639.51" width="12.34" height="1.4" fill="oklch(0.78 0.19 195)" opacity="0.3"/>
<rect x="606.61" y="263.25" width="5.57" height="1.4" fill="oklch(0.78 0.19 195)" opacity="0.35"/>
<rect x="70.18" y="117.35" width="25.26" height="1.4" fill="oklch(0.78 0.19 195)" opacity="0.14"/>
<rect x="765.2" y="183.73" width="5.17" height="1.4" fill="oklch(0.78 0.19 195)" opacity="0.25"/>
<rect x="540.04" y="145.87" width="14.88" height="1.4" fill="oklch(0.78 0.19 195)" opacity="0.3"/>
<rect x="309.75" y="767.09" width="7.19" height="1.4" fill="oklch(0.78 0.19 195)" opacity="0.43"/>
<rect x="531.58" y="349.6" width="10.62" height="1.4" fill="oklch(0.78 0.19 195)" opacity="0.45"/>
<rect x="47.14" y="451.3" width="7.78" height="1.4" fill="oklch(0.78 0.19 195)" opacity="0.12"/>
<rect x="944.79" y="480.48" width="20.91" height="1.4" fill="oklch(0.78 0.19 195)" opacity="0.42"/>
<rect x="232.84" y="464.02" width="17.02" height="1.4" fill="oklch(0.78 0.19 195)" opacity="0.37"/>
<rect x="283.41" y="497.55" width="4.22" height="1.4" fill="oklch(0.78 0.19 195)" opacity="0.29"/>
<rect x="861.16" y="310.66" width="29.52" height="1.4" fill="oklch(0.78 0.19 195)" opacity="0.42"/>
<rect x="477.35" y="710.41" width="13.4" height="1.4" fill="oklch(0.78 0.19 195)" opacity="0.19"/>
<rect x="216.8" y="279.09" width="26.92" height="1.4" fill="oklch(0.78 0.19 195)" opacity="0.3"/>
<rect x="199.18" y="80.06" width="9.88" height="1.4" fill="oklch(0.78 0.19 195)" opacity="0.23"/>
<rect x="93.53" y="97.89" width="11.48" height="1.4" fill="oklch(0.78 0.19 195)" opacity="0.36"/>
<rect x="129.47" y="470.91" width="13.56" height="1.4" fill="oklch(0.78 0.19 195)" opacity="0.2"/>
<rect x="222.07" y="727.12" width="23.94" height="1.4" fill="oklch(0.78 0.19 195)" opacity="0.18"/>
<rect x="187.77" y="479.58" width="21.29" height="1.4" fill="oklch(0.78 0.19 195)" opacity="0.12"/>
<rect x="257.96" y="400.79" width="15.16" height="1.4" fill="oklch(0.78 0.19 195)" opacity="0.14"/>
<rect x="203.59" y="765.39" width="26.43" height="1.4" fill="oklch(0.78 0.19 195)" opacity="0.18"/>
<rect x="578.22" y="21.51" width="7.3" height="1.4" fill="oklch(0.78 0.19 195)" opacity="0.38"/>
<rect x="923.77" y="311.29" width="20.35" height="1.4" fill="oklch(0.78 0.19 195)" opacity="0.19"/>
<rect x="943.87" y="717.12" width="18.67" height="1.4" fill="oklch(0.78 0.19 195)" opacity="0.18"/>
<rect x="84.91" y="135.1" width="11.56" height="1.4" fill="oklch(0.78 0.19 195)" opacity="0.4"/>
<rect x="151.94" y="485.79" width="17.53" height="1.4" fill="oklch(0.78 0.19 195)" opacity="0.22"/>
<rect x="926.11" y="206.72" width="7.26" height="1.4" fill="oklch(0.78 0.19 195)" opacity="0.41"/>
<rect x="121.47" y="98.64" width="5.89" height="1.4" fill="oklch(0.78 0.19 195)" opacity="0.19"/>
<rect x="105.19" y="653.31" width="19.12" height="1.4" fill="oklch(0.78 0.19 195)" opacity="0.28"/>
<rect x="345.05" y="128.85" width="23.32" height="1.4" fill="oklch(0.78 0.19 195)" opacity="0.34"/>
<rect x="662.13" y="513.79" width="20.29" height="1.4" fill="oklch(0.78 0.19 195)" opacity="0.18"/>
<rect x="251.9" y="292.81" width="18.79" height="1.4" fill="oklch(0.78 0.19 195)" opacity="0.39"/>
<rect x="583.14" y="588.65" width="19.92" height="1.4" fill="oklch(0.78 0.19 195)" opacity="0.23"/>
<rect x="589.24" y="433.93" width="14.7" height="1.4" fill="oklch(0.78 0.19 195)" opacity="0.25"/>
<rect x="73.33" y="245.08" width="14.44" height="1.4" fill="oklch(0.78 0.19 195)" opacity="0.41"/>
<rect x="839.22" y="502.69" width="23.66" height="1.4" fill="oklch(0.78 0.19 195)" opacity="0.28"/>
<rect x="457.5" y="427.32" width="8.4" height="1.4" fill="oklch(0.78 0.19 195)" opacity="0.44"/>
<rect x="30.67" y="622.47" width="19.64" height="1.4" fill="oklch(0.78 0.19 195)" opacity="0.12"/>
<rect x="651.88" y="451.56" width="12.19" height="1.4" fill="oklch(0.78 0.19 195)" opacity="0.31"/>
<rect x="915.94" y="6.8" width="28.69" height="1.4" fill="oklch(0.78 0.19 195)" opacity="0.25"/>
<rect x="79.41" y="279.28" width="16.92" height="1.4" fill="oklch(0.78 0.19 195)" opacity="0.38"/>
<rect x="73.03" y="203.78" width="17.56" height="1.4" fill="oklch(0.78 0.19 195)" opacity="0.23"/>
<rect x="756.27" y="669.6" width="16.12" height="1.4" fill="oklch(0.78 0.19 195)" opacity="0.29"/>
<rect x="625.23" y="95.27" width="6.27" height="1.4" fill="oklch(0.78 0.19 195)" opacity="0.16"/>
<rect x="842.85" y="171.02" width="8.05" height="1.4" fill="oklch(0.78 0.19 195)" opacity="0.19"/>
<rect x="814.21" y="308.61" width="24.73" height="1.4" fill="oklch(0.78 0.19 195)" opacity="0.36"/>
<rect x="101.69" y="253.74" width="5.79" height="1.4" fill="oklch(0.78 0.19 195)" opacity="0.38"/>
<rect x="640.67" y="189.83" width="6.6" height="1.4" fill="oklch(0.78 0.19 195)" opacity="0.18"/>
<rect x="682.07" y="734.31" width="4.42" height="1.4" fill="oklch(0.78 0.19 195)" opacity="0.24"/>
<rect x="902.32" y="214.59" width="14.62" height="1.4" fill="oklch(0.78 0.19 195)" opacity="0.13"/>
<rect x="529.04" y="707.34" width="4.59" height="1.4" fill="oklch(0.78 0.19 195)" opacity="0.38"/>
<rect x="630.65" y="89.78" width="6.44" height="1.4" fill="oklch(0.78 0.19 195)" opacity="0.44"/>
<rect x="463.59" y="115.5" width="24.86" height="1.4" fill="oklch(0.78 0.19 195)" opacity="0.11"/>
<rect x="497.5" y="694.59" width="7.33" height="1.4" fill="oklch(0.78 0.19 195)" opacity="0.43"/>
<rect x="276.71" y="11.67" width="22.7" height="1.4" fill="oklch(0.78 0.19 195)" opacity="0.12"/>
<rect x="715.8" y="506.37" width="12.95" height="1.4" fill="oklch(0.78 0.19 195)" opacity="0.23"/>
<rect x="893.03" y="459.69" width="6.34" height="1.4" fill="oklch(0.78 0.19 195)" opacity="0.18"/>
<rect x="239.12" y="0.97" width="10.18" height="1.4" fill="oklch(0.78 0.19 195)" opacity="0.33"/>
<rect x="327.54" y="587.15" width="20.53" height="1.4" fill="oklch(0.78 0.19 195)" opacity="0.39"/>
<rect x="921.65" y="423.59" width="5.23" height="1.4" fill="oklch(0.78 0.19 195)" opacity="0.23"/>
<rect x="783.97" y="572.01" width="23.88" height="1.4" fill="oklch(0.78 0.19 195)" opacity="0.14"/>
    </g>
    <g mask="url(#maskLower)">
<path d="M 719.59 1250 Q 721.82 884.25 732.41 585 Q 743.01 884.25 790.22 1250 Z" fill="oklch(0.78 0.19 35)" opacity="0.2"/>
<path d="M 726.9 1250 Q 726.96 954.54 731.47 712.81 Q 735.98 954.54 756.96 1250 Z" fill="oklch(0.62 0.06 35)" opacity="0.33"/>
<path d="M 145.16 1250 Q 147.6 1129.64 157.73 1031.16 Q 167.87 1129.64 212.72 1250 Z" fill="oklch(0.62 0.06 35)" opacity="0.1"/>
<path d="M 671.53 1250 Q 686.75 1013.17 696.72 819.4 Q 706.7 1013.17 738.03 1250 Z" fill="oklch(0.62 0.06 35)" opacity="0.27"/>
<path d="M 668.38 1250 Q 666.79 881.77 672.19 580.5 Q 677.59 881.77 704.4 1250 Z" fill="oklch(0.62 0.06 35)" opacity="0.16"/>
<path d="M 142.06 1250 Q 171.24 1032.24 184.38 854.07 Q 197.53 1032.24 229.68 1250 Z" fill="oklch(0.62 0.06 35)" opacity="0.28"/>
<path d="M 620.06 1250 Q 688.8 1016.19 704.2 824.89 Q 719.6 1016.19 722.72 1250 Z" fill="oklch(0.78 0.19 35)" opacity="0.14"/>
<path d="M 368.44 1250 Q 366.22 1043.07 371.51 873.76 Q 376.8 1043.07 403.71 1250 Z" fill="oklch(0.62 0.06 35)" opacity="0.1"/>
<path d="M 960.4 1250 Q 973.51 1000.79 977.89 796.9 Q 982.28 1000.79 989.65 1250 Z" fill="oklch(0.62 0.06 35)" opacity="0.15"/>
<path d="M 610.53 1250 Q 650.49 897.42 662.46 608.95 Q 674.43 897.42 690.33 1250 Z" fill="oklch(0.62 0.06 35)" opacity="0.29"/>
<path d="M 216.13 1250 Q 222.34 1126.71 238.17 1025.83 Q 254 1126.71 321.66 1250 Z" fill="oklch(0.62 0.06 35)" opacity="0.17"/>
<path d="M 1.39 1250 Q 25.12 965.18 40.22 732.14 Q 55.32 965.18 102.07 1250 Z" fill="oklch(0.62 0.06 35)" opacity="0.23"/>
<path d="M 407.38 1250 Q 409.37 1068.65 415.13 920.27 Q 420.88 1068.65 445.74 1250 Z" fill="oklch(0.78 0.19 35)" opacity="0.23"/>
<path d="M 285.7 1250 Q 320.07 1109.41 329.06 994.38 Q 338.05 1109.41 345.62 1250 Z" fill="oklch(0.62 0.06 35)" opacity="0.3"/>
<path d="M 429.72 1250 Q 446.04 1172.73 450.14 1109.51 Q 454.24 1172.73 457.07 1250 Z" fill="oklch(0.62 0.06 35)" opacity="0.23"/>
<path d="M 200.15 1250 Q 240.37 878.32 259.21 574.21 Q 278.05 878.32 325.75 1250 Z" fill="oklch(0.62 0.06 35)" opacity="0.23"/>
<path d="M 243.52 1250 Q 261.87 1098.81 277.88 975.1 Q 293.89 1098.81 350.23 1250 Z" fill="oklch(0.62 0.06 35)" opacity="0.17"/>
<path d="M 356.95 1250 Q 412.27 928.33 423.09 665.15 Q 433.9 928.33 429.07 1250 Z" fill="oklch(0.62 0.06 35)" opacity="0.33"/>
<path d="M 206.84 1250 Q 241.59 1042.12 261.31 872.03 Q 281.02 1042.12 338.27 1250 Z" fill="oklch(0.78 0.19 35)" opacity="0.23"/>
<path d="M 206.52 1250 Q 206.35 909.59 220.99 631.07 Q 235.62 909.59 304.08 1250 Z" fill="oklch(0.62 0.06 35)" opacity="0.08"/>
<path d="M 574.38 1250 Q 580.08 1000.45 592.89 796.28 Q 605.7 1000.45 659.76 1250 Z" fill="oklch(0.62 0.06 35)" opacity="0.13"/>
<path d="M 300.37 1250 Q 353.91 1134.9 367.81 1040.73 Q 381.72 1134.9 393.06 1250 Z" fill="oklch(0.62 0.06 35)" opacity="0.14"/>
<path d="M -37.83 1250 Q -7.18 1086.65 6.04 953.01 Q 19.27 1086.65 50.33 1250 Z" fill="oklch(0.62 0.06 35)" opacity="0.17"/>
<path d="M 758.58 1250 Q 765.31 1017.08 781.15 826.51 Q 797 1017.08 864.21 1250 Z" fill="oklch(0.62 0.06 35)" opacity="0.19"/>
<path d="M 146.04 1250 Q 155.69 1141.09 159.99 1051.99 Q 164.28 1141.09 174.68 1250 Z" fill="oklch(0.78 0.19 35)" opacity="0.15"/>
<path d="M 147.86 1250 Q 218.35 892.84 235.53 600.62 Q 252.72 892.84 262.41 1250 Z" fill="oklch(0.62 0.06 35)" opacity="0.21"/>
<path d="M 842.16 1250 Q 882.64 881.13 894.5 579.32 Q 906.36 881.13 921.23 1250 Z" fill="oklch(0.62 0.06 35)" opacity="0.26"/>
<path d="M 854.71 1250 Q 854.93 1029.17 868.31 848.49 Q 881.68 1029.17 943.88 1250 Z" fill="oklch(0.62 0.06 35)" opacity="0.12"/>
    </g>
    <line x1="80" y1="391.92" x2="920" y2="391.92" stroke="oklch(0.95 0.02 90)" stroke-width="2" opacity="0.5"/>
  </g>
  <rect width="1000" height="1250" filter="url(#grain)" opacity="0.12" style="mix-blend-mode:overlay"/>
</svg>
