<svg xmlns="http://www.w3.org/2000/svg" viewBox="0 0 1000 1250" width="1000" height="1250" role="img" aria-label="兌為沢のイメージ">
  <title>兌為沢（第58卦 ䷹）</title>
  <defs>
    <linearGradient id="bg" x1="0" y1="0" x2="0" y2="1">
      <stop offset="0%" stop-color="oklch(0.94 0.02 195)"/>
      <stop offset="100%" stop-color="oklch(0.91 0.03 195)"/>
    </linearGradient>
    <linearGradient id="fadeDown" x1="0" y1="0" x2="0" y2="1">
      <stop offset="59.56%" stop-color="#fff"/>
      <stop offset="67.84%" stop-color="#000"/>
    </linearGradient>
    <linearGradient id="fadeUp" x1="0" y1="0" x2="0" y2="1">
      <stop offset="59.56%" stop-color="#000"/>
      <stop offset="67.84%" stop-color="#fff"/>
    </linearGradient>
    <mask id="maskUpper"><rect width="1000" height="1250" fill="url(#fadeDown)"/></mask>
    <mask id="maskLower"><rect width="1000" height="1250" fill="url(#fadeUp)"/></mask>
    <filter id="grain">
      <feTurbulence type="fractalNoise" baseFrequency="0.85" numOctaves="3" seed="58"/>
      <feColorMatrix type="saturate" values="0"/>
    </filter>
    <clipPath id="frame"><rect width="1000" height="1250"/></clipPath>
  </defs>
  <rect width="1000" height="1250" fill="url(#bg)"/>
  <g clip-path="url(#frame)">
    <g mask="url(#maskUpper)">
<ellipse cx="726.13" cy="534.94" rx="66.52" ry="21.29" fill="none" stroke="oklch(0.58 0.19 195)" stroke-width="2.54" opacity="0.35"/>
<ellipse cx="726.13" cy="534.94" rx="133.04" ry="42.57" fill="none" stroke="oklch(0.38 0.14 195)" stroke-width="1.58" opacity="0.3"/>
<ellipse cx="726.13" cy="534.94" rx="199.56" ry="63.86" fill="none" stroke="oklch(0.38 0.14 195)" stroke-width="0.62" opacity="0.25"/>
<ellipse cx="726.13" cy="534.94" rx="266.08" ry="85.14" fill="none" stroke="oklch(0.38 0.14 195)" stroke-width="0.89" opacity="0.2"/>
<ellipse cx="726.13" cy="534.94" rx="332.6" ry="106.43" fill="none" stroke="oklch(0.58 0.19 195)" stroke-width="0.68" opacity="0.15"/>
<ellipse cx="418.17" cy="400.2" rx="23.18" ry="7.42" fill="none" stroke="oklch(0.58 0.19 195)" stroke-width="2.01" opacity="0.38"/>
<ellipse cx="418.17" cy="400.2" rx="46.36" ry="14.84" fill="none" stroke="oklch(0.38 0.14 195)" stroke-width="1.82" opacity="0.35"/>
<ellipse cx="418.17" cy="400.2" rx="69.55" ry="22.25" fill="none" stroke="oklch(0.38 0.14 195)" stroke-width="1.48" opacity="0.33"/>
<ellipse cx="418.17" cy="400.2" rx="92.73" ry="29.67" fill="none" stroke="oklch(0.38 0.14 195)" stroke-width="1.34" opacity="0.31"/>
<ellipse cx="418.17" cy="400.2" rx="115.91" ry="37.09" fill="none" stroke="oklch(0.58 0.19 195)" stroke-width="2.26" opacity="0.29"/>
<ellipse cx="418.17" cy="400.2" rx="139.09" ry="44.51" fill="none" stroke="oklch(0.38 0.14 195)" stroke-width="2.57" opacity="0.26"/>
<ellipse cx="418.17" cy="400.2" rx="162.27" ry="51.93" fill="none" stroke="oklch(0.38 0.14 195)" stroke-width="1.85" opacity="0.24"/>
<ellipse cx="418.17" cy="400.2" rx="185.45" ry="59.35" fill="none" stroke="oklch(0.38 0.14 195)" stroke-width="0.87" opacity="0.22"/>
<ellipse cx="418.17" cy="400.2" rx="208.64" ry="66.76" fill="none" stroke="oklch(0.58 0.19 195)" stroke-width="1.83" opacity="0.2"/>
<ellipse cx="418.17" cy="400.2" rx="231.82" ry="74.18" fill="none" stroke="oklch(0.38 0.14 195)" stroke-width="1.58" opacity="0.17"/>
<ellipse cx="418.17" cy="400.2" rx="255" ry="81.6" fill="none" stroke="oklch(0.38 0.14 195)" stroke-width="1.67" opacity="0.15"/>
<ellipse cx="579.57" cy="253.13" rx="28.19" ry="9.02" fill="none" stroke="oklch(0.58 0.19 195)" stroke-width="2.5" opacity="0.38"/>
<ellipse cx="579.57" cy="253.13" rx="56.37" ry="18.04" fill="none" stroke="oklch(0.38 0.14 195)" stroke-width="1.73" opacity="0.36"/>
<ellipse cx="579.57" cy="253.13" rx="84.56" ry="27.06" fill="none" stroke="oklch(0.38 0.14 195)" stroke-width="0.92" opacity="0.34"/>
<ellipse cx="579.57" cy="253.13" rx="112.74" ry="36.08" fill="none" stroke="oklch(0.38 0.14 195)" stroke-width="0.69" opacity="0.32"/>
<ellipse cx="579.57" cy="253.13" rx="140.93" ry="45.1" fill="none" stroke="oklch(0.58 0.19 195)" stroke-width="2.55" opacity="0.3"/>
<ellipse cx="579.57" cy="253.13" rx="169.11" ry="54.12" fill="none" stroke="oklch(0.38 0.14 195)" stroke-width="2.22" opacity="0.28"/>
<ellipse cx="579.57" cy="253.13" rx="197.3" ry="63.14" fill="none" stroke="oklch(0.38 0.14 195)" stroke-width="1.97" opacity="0.25"/>
<ellipse cx="579.57" cy="253.13" rx="225.48" ry="72.15" fill="none" stroke="oklch(0.38 0.14 195)" stroke-width="0.99" opacity="0.23"/>
<ellipse cx="579.57" cy="253.13" rx="253.67" ry="81.17" fill="none" stroke="oklch(0.58 0.19 195)" stroke-width="2.4" opacity="0.21"/>
<ellipse cx="579.57" cy="253.13" rx="281.85" ry="90.19" fill="none" stroke="oklch(0.38 0.14 195)" stroke-width="2.39" opacity="0.19"/>
<ellipse cx="579.57" cy="253.13" rx="310.04" ry="99.21" fill="none" stroke="oklch(0.38 0.14 195)" stroke-width="1.99" opacity="0.17"/>
<ellipse cx="579.57" cy="253.13" rx="338.22" ry="108.23" fill="none" stroke="oklch(0.38 0.14 195)" stroke-width="2.27" opacity="0.15"/>
<ellipse cx="593.38" cy="734.98" rx="36.79" ry="11.77" fill="none" stroke="oklch(0.58 0.19 195)" stroke-width="1.69" opacity="0.36"/>
<ellipse cx="593.38" cy="734.98" rx="73.58" ry="23.55" fill="none" stroke="oklch(0.38 0.14 195)" stroke-width="0.89" opacity="0.32"/>
<ellipse cx="593.38" cy="734.98" rx="110.37" ry="35.32" fill="none" stroke="oklch(0.38 0.14 195)" stroke-width="1" opacity="0.28"/>
<ellipse cx="593.38" cy="734.98" rx="147.16" ry="47.09" fill="none" stroke="oklch(0.38 0.14 195)" stroke-width="0.8" opacity="0.23"/>
<ellipse cx="593.38" cy="734.98" rx="183.95" ry="58.86" fill="none" stroke="oklch(0.58 0.19 195)" stroke-width="1.13" opacity="0.19"/>
<ellipse cx="593.38" cy="734.98" rx="220.74" ry="70.64" fill="none" stroke="oklch(0.38 0.14 195)" stroke-width="1.54" opacity="0.15"/>
<rect x="767.61" y="10.67" width="24.5" height="1.4" fill="oklch(0.58 0.19 195)" opacity="0.19"/>
<rect x="334.14" y="575.02" width="25.71" height="1.4" fill="oklch(0.58 0.19 195)" opacity="0.15"/>
<rect x="339.07" y="634.51" width="7.95" height="1.4" fill="oklch(0.58 0.19 195)" opacity="0.3"/>
<rect x="779.06" y="696.69" width="13.82" height="1.4" fill="oklch(0.58 0.19 195)" opacity="0.16"/>
<rect x="867.5" y="214.7" width="28.67" height="1.4" fill="oklch(0.58 0.19 195)" opacity="0.28"/>
<rect x="712.42" y="700.42" width="24.67" height="1.4" fill="oklch(0.58 0.19 195)" opacity="0.43"/>
<rect x="479.06" y="673.15" width="10.58" height="1.4" fill="oklch(0.58 0.19 195)" opacity="0.22"/>
<rect x="424.37" y="773.89" width="7.96" height="1.4" fill="oklch(0.58 0.19 195)" opacity="0.17"/>
<rect x="182.2" y="113.11" width="13.37" height="1.4" fill="oklch(0.58 0.19 195)" opacity="0.36"/>
<rect x="147.11" y="499.31" width="23.93" height="1.4" fill="oklch(0.58 0.19 195)" opacity="0.19"/>
<rect x="650.39" y="308.83" width="24.27" height="1.4" fill="oklch(0.58 0.19 195)" opacity="0.19"/>
<rect x="588.17" y="108.52" width="15.95" height="1.4" fill="oklch(0.58 0.19 195)" opacity="0.28"/>
<rect x="108.76" y="824.72" width="5.98" height="1.4" fill="oklch(0.58 0.19 195)" opacity="0.36"/>
<rect x="10.3" y="157.27" width="18.33" height="1.4" fill="oklch(0.58 0.19 195)" opacity="0.2"/>
<rect x="865.53" y="833.37" width="18.5" height="1.4" fill="oklch(0.58 0.19 195)" opacity="0.15"/>
<rect x="506.19" y="582.16" width="15.12" height="1.4" fill="oklch(0.58 0.19 195)" opacity="0.44"/>
<rect x="190.64" y="141.73" width="26.69" height="1.4" fill="oklch(0.58 0.19 195)" opacity="0.18"/>
<rect x="554.63" y="713.03" width="12.44" height="1.4" fill="oklch(0.58 0.19 195)" opacity="0.11"/>
<rect x="812.52" y="172.14" width="9.04" height="1.4" fill="oklch(0.58 0.19 195)" opacity="0.35"/>
<rect x="947.24" y="624.94" width="4.1" height="1.4" fill="oklch(0.58 0.19 195)" opacity="0.26"/>
<rect x="693.55" y="138.26" width="22.77" height="1.4" fill="oklch(0.58 0.19 195)" opacity="0.24"/>
<rect x="89.93" y="247.65" width="7.26" height="1.4" fill="oklch(0.58 0.19 195)" opacity="0.34"/>
<rect x="594.16" y="830.51" width="18.96" height="1.4" fill="oklch(0.58 0.19 195)" opacity="0.18"/>
<rect x="888.41" y="239.78" width="28.43" height="1.4" fill="oklch(0.58 0.19 195)" opacity="0.16"/>
<rect x="538.59" y="332.61" width="16.55" height="1.4" fill="oklch(0.58 0.19 195)" opacity="0.16"/>
<rect x="929.7" y="10.81" width="10.81" height="1.4" fill="oklch(0.58 0.19 195)" opacity="0.22"/>
<rect x="959.09" y="12.62" width="14.7" height="1.4" fill="oklch(0.58 0.19 195)" opacity="0.3"/>
<rect x="371.16" y="598.2" width="6.2" height="1.4" fill="oklch(0.58 0.19 195)" opacity="0.42"/>
<rect x="342.83" y="445.7" width="10.96" height="1.4" fill="oklch(0.58 0.19 195)" opacity="0.3"/>
<rect x="245.81" y="389.81" width="10.23" height="1.4" fill="oklch(0.58 0.19 195)" opacity="0.32"/>
<rect x="759.42" y="705.88" width="12.34" height="1.4" fill="oklch(0.58 0.19 195)" opacity="0.23"/>
<rect x="630.86" y="50.64" width="13.71" height="1.4" fill="oklch(0.58 0.19 195)" opacity="0.28"/>
<rect x="103.7" y="222.46" width="24.95" height="1.4" fill="oklch(0.58 0.19 195)" opacity="0.18"/>
<rect x="799.95" y="21.21" width="20.72" height="1.4" fill="oklch(0.58 0.19 195)" opacity="0.42"/>
<rect x="537.18" y="444.12" width="14.41" height="1.4" fill="oklch(0.58 0.19 195)" opacity="0.28"/>
<rect x="224.05" y="7.8" width="21.46" height="1.4" fill="oklch(0.58 0.19 195)" opacity="0.25"/>
<rect x="212.41" y="425.65" width="27.73" height="1.4" fill="oklch(0.58 0.19 195)" opacity="0.26"/>
<rect x="370.77" y="162.41" width="22.42" height="1.4" fill="oklch(0.58 0.19 195)" opacity="0.22"/>
<rect x="689.04" y="832.58" width="28.04" height="1.4" fill="oklch(0.58 0.19 195)" opacity="0.18"/>
<rect x="327.52" y="665.35" width="12.2" height="1.4" fill="oklch(0.58 0.19 195)" opacity="0.38"/>
<rect x="589.65" y="834.49" width="10.61" height="1.4" fill="oklch(0.58 0.19 195)" opacity="0.18"/>
<rect x="280.85" y="19.73" width="21.46" height="1.4" fill="oklch(0.58 0.19 195)" opacity="0.16"/>
<rect x="971.33" y="27.44" width="10.43" height="1.4" fill="oklch(0.58 0.19 195)" opacity="0.18"/>
<rect x="700.86" y="400.21" width="8.51" height="1.4" fill="oklch(0.58 0.19 195)" opacity="0.14"/>
<rect x="423.54" y="779.58" width="14.78" height="1.4" fill="oklch(0.58 0.19 195)" opacity="0.21"/>
<rect x="501.32" y="695.87" width="29.54" height="1.4" fill="oklch(0.58 0.19 195)" opacity="0.29"/>
<rect x="675.29" y="824.28" width="24.84" height="1.4" fill="oklch(0.58 0.19 195)" opacity="0.11"/>
<rect x="101.62" y="334.29" width="17.49" height="1.4" fill="oklch(0.58 0.19 195)" opacity="0.31"/>
<rect x="294.02" y="215.51" width="29.67" height="1.4" fill="oklch(0.58 0.19 195)" opacity="0.11"/>
<rect x="802.21" y="500.9" width="28.4" height="1.4" fill="oklch(0.58 0.19 195)" opacity="0.2"/>
<rect x="933.58" y="409.16" width="24.06" height="1.4" fill="oklch(0.58 0.19 195)" opacity="0.1"/>
<rect x="40.24" y="471.61" width="20.83" height="1.4" fill="oklch(0.58 0.19 195)" opacity="0.39"/>
<rect x="486.46" y="822.76" width="23.38" height="1.4" fill="oklch(0.58 0.19 195)" opacity="0.45"/>
<rect x="872.3" y="288.8" width="12.89" height="1.4" fill="oklch(0.58 0.19 195)" opacity="0.18"/>
<rect x="783.97" y="493.08" width="4.77" height="1.4" fill="oklch(0.58 0.19 195)" opacity="0.19"/>
<rect x="703.06" y="8.24" width="22.34" height="1.4" fill="oklch(0.58 0.19 195)" opacity="0.26"/>
<rect x="273.33" y="182.83" width="21.16" height="1.4" fill="oklch(0.58 0.19 195)" opacity="0.19"/>
<rect x="689.22" y="543.5" width="13.2" height="1.4" fill="oklch(0.58 0.19 195)" opacity="0.44"/>
<rect x="782.67" y="444.81" width="18.7" height="1.4" fill="oklch(0.58 0.19 195)" opacity="0.1"/>
<rect x="146.39" y="228.21" width="17.19" height="1.4" fill="oklch(0.58 0.19 195)" opacity="0.22"/>
<rect x="369.24" y="250.57" width="23.33" height="1.4" fill="oklch(0.58 0.19 195)" opacity="0.25"/>
<rect x="427.84" y="578.25" width="4.32" height="1.4" fill="oklch(0.58 0.19 195)" opacity="0.14"/>
<rect x="566.8" y="821.55" width="24.81" height="1.4" fill="oklch(0.58 0.19 195)" opacity="0.33"/>
<rect x="579.71" y="271.6" width="10.12" height="1.4" fill="oklch(0.58 0.19 195)" opacity="0.19"/>
<rect x="830.61" y="320.22" width="24.84" height="1.4" fill="oklch(0.58 0.19 195)" opacity="0.1"/>
<rect x="934.41" y="88.84" width="20.32" height="1.4" fill="oklch(0.58 0.19 195)" opacity="0.29"/>
<rect x="704.75" y="613.29" width="20.13" height="1.4" fill="oklch(0.58 0.19 195)" opacity="0.15"/>
<rect x="177.32" y="405.75" width="25.67" height="1.4" fill="oklch(0.58 0.19 195)" opacity="0.31"/>
<rect x="715.55" y="143.65" width="22.98" height="1.4" fill="oklch(0.58 0.19 195)" opacity="0.17"/>
<rect x="223.19" y="438.55" width="16.62" height="1.4" fill="oklch(0.58 0.19 195)" opacity="0.35"/>
    </g>
    <g mask="url(#maskLower)">
<ellipse cx="770.74" cy="938.11" rx="28.34" ry="9.07" fill="none" stroke="oklch(0.58 0.19 195)" stroke-width="2.52" opacity="0.37"/>
<ellipse cx="770.74" cy="938.11" rx="56.67" ry="18.14" fill="none" stroke="oklch(0.38 0.14 195)" stroke-width="0.78" opacity="0.34"/>
<ellipse cx="770.74" cy="938.11" rx="85.01" ry="27.2" fill="none" stroke="oklch(0.38 0.14 195)" stroke-width="2.37" opacity="0.32"/>
<ellipse cx="770.74" cy="938.11" rx="113.34" ry="36.27" fill="none" stroke="oklch(0.38 0.14 195)" stroke-width="2.21" opacity="0.29"/>
<ellipse cx="770.74" cy="938.11" rx="141.68" ry="45.34" fill="none" stroke="oklch(0.58 0.19 195)" stroke-width="0.94" opacity="0.26"/>
<ellipse cx="770.74" cy="938.11" rx="170.02" ry="54.41" fill="none" stroke="oklch(0.38 0.14 195)" stroke-width="1.36" opacity="0.23"/>
<ellipse cx="770.74" cy="938.11" rx="198.35" ry="63.47" fill="none" stroke="oklch(0.38 0.14 195)" stroke-width="1.25" opacity="0.21"/>
<ellipse cx="770.74" cy="938.11" rx="226.69" ry="72.54" fill="none" stroke="oklch(0.38 0.14 195)" stroke-width="0.84" opacity="0.18"/>
<ellipse cx="770.74" cy="938.11" rx="255.02" ry="81.61" fill="none" stroke="oklch(0.58 0.19 195)" stroke-width="1.78" opacity="0.15"/>
<ellipse cx="371.09" cy="1044.27" rx="33.18" ry="10.62" fill="none" stroke="oklch(0.58 0.19 195)" stroke-width="2.12" opacity="0.37"/>
<ellipse cx="371.09" cy="1044.27" rx="66.36" ry="21.24" fill="none" stroke="oklch(0.38 0.14 195)" stroke-width="1.78" opacity="0.34"/>
<ellipse cx="371.09" cy="1044.27" rx="99.55" ry="31.85" fill="none" stroke="oklch(0.38 0.14 195)" stroke-width="0.69" opacity="0.32"/>
<ellipse cx="371.09" cy="1044.27" rx="132.73" ry="42.47" fill="none" stroke="oklch(0.38 0.14 195)" stroke-width="2.23" opacity="0.29"/>
<ellipse cx="371.09" cy="1044.27" rx="165.91" ry="53.09" fill="none" stroke="oklch(0.58 0.19 195)" stroke-width="2.36" opacity="0.26"/>
<ellipse cx="371.09" cy="1044.27" rx="199.09" ry="63.71" fill="none" stroke="oklch(0.38 0.14 195)" stroke-width="2.59" opacity="0.23"/>
<ellipse cx="371.09" cy="1044.27" rx="232.28" ry="74.33" fill="none" stroke="oklch(0.38 0.14 195)" stroke-width="1.04" opacity="0.21"/>
<ellipse cx="371.09" cy="1044.27" rx="265.46" ry="84.95" fill="none" stroke="oklch(0.38 0.14 195)" stroke-width="2.52" opacity="0.18"/>
<ellipse cx="371.09" cy="1044.27" rx="298.64" ry="95.56" fill="none" stroke="oklch(0.58 0.19 195)" stroke-width="1.95" opacity="0.15"/>
<ellipse cx="419.85" cy="1105.52" rx="32.41" ry="10.37" fill="none" stroke="oklch(0.58 0.19 195)" stroke-width="1.14" opacity="0.37"/>
<ellipse cx="419.85" cy="1105.52" rx="64.81" ry="20.74" fill="none" stroke="oklch(0.38 0.14 195)" stroke-width="2.32" opacity="0.34"/>
<ellipse cx="419.85" cy="1105.52" rx="97.22" ry="31.11" fill="none" stroke="oklch(0.38 0.14 195)" stroke-width="1.1" opacity="0.31"/>
<ellipse cx="419.85" cy="1105.52" rx="129.63" ry="41.48" fill="none" stroke="oklch(0.38 0.14 195)" stroke-width="1.58" opacity="0.28"/>
<ellipse cx="419.85" cy="1105.52" rx="162.03" ry="51.85" fill="none" stroke="oklch(0.58 0.19 195)" stroke-width="1.78" opacity="0.24"/>
<ellipse cx="419.85" cy="1105.52" rx="194.44" ry="62.22" fill="none" stroke="oklch(0.38 0.14 195)" stroke-width="1.48" opacity="0.21"/>
<ellipse cx="419.85" cy="1105.52" rx="226.85" ry="72.59" fill="none" stroke="oklch(0.38 0.14 195)" stroke-width="2.25" opacity="0.18"/>
<ellipse cx="419.85" cy="1105.52" rx="259.25" ry="82.96" fill="none" stroke="oklch(0.38 0.14 195)" stroke-width="1.25" opacity="0.15"/>
<ellipse cx="478.7" cy="975.6" rx="30.67" ry="9.81" fill="none" stroke="oklch(0.58 0.19 195)" stroke-width="0.93" opacity="0.35"/>
<ellipse cx="478.7" cy="975.6" rx="61.34" ry="19.63" fill="none" stroke="oklch(0.38 0.14 195)" stroke-width="2.48" opacity="0.3"/>
<ellipse cx="478.7" cy="975.6" rx="92.01" ry="29.44" fill="none" stroke="oklch(0.38 0.14 195)" stroke-width="0.71" opacity="0.25"/>
<ellipse cx="478.7" cy="975.6" rx="122.67" ry="39.26" fill="none" stroke="oklch(0.38 0.14 195)" stroke-width="0.83" opacity="0.2"/>
<ellipse cx="478.7" cy="975.6" rx="153.34" ry="49.07" fill="none" stroke="oklch(0.58 0.19 195)" stroke-width="1.63" opacity="0.15"/>
<rect x="712.72" y="900.12" width="18.83" height="1.4" fill="oklch(0.58 0.19 195)" opacity="0.22"/>
<rect x="584.52" y="900.33" width="20.34" height="1.4" fill="oklch(0.58 0.19 195)" opacity="0.35"/>
<rect x="447.97" y="999.02" width="12.99" height="1.4" fill="oklch(0.58 0.19 195)" opacity="0.28"/>
<rect x="634.24" y="885.01" width="18.54" height="1.4" fill="oklch(0.58 0.19 195)" opacity="0.44"/>
<rect x="275.77" y="842.56" width="15.84" height="1.4" fill="oklch(0.58 0.19 195)" opacity="0.14"/>
<rect x="319.26" y="1081.38" width="10.69" height="1.4" fill="oklch(0.58 0.19 195)" opacity="0.14"/>
<rect x="211.85" y="812.73" width="17.89" height="1.4" fill="oklch(0.58 0.19 195)" opacity="0.39"/>
<rect x="59.14" y="952.03" width="16.03" height="1.4" fill="oklch(0.58 0.19 195)" opacity="0.42"/>
<rect x="991.92" y="907.38" width="11" height="1.4" fill="oklch(0.58 0.19 195)" opacity="0.17"/>
<rect x="569.5" y="1172.73" width="12.5" height="1.4" fill="oklch(0.58 0.19 195)" opacity="0.33"/>
<rect x="760.11" y="767.19" width="21.53" height="1.4" fill="oklch(0.58 0.19 195)" opacity="0.19"/>
<rect x="942.8" y="1215.41" width="23.74" height="1.4" fill="oklch(0.58 0.19 195)" opacity="0.36"/>
<rect x="864.3" y="979.59" width="18.64" height="1.4" fill="oklch(0.58 0.19 195)" opacity="0.36"/>
<rect x="272.65" y="1087.02" width="9.86" height="1.4" fill="oklch(0.58 0.19 195)" opacity="0.2"/>
<rect x="754.28" y="1211.86" width="17.73" height="1.4" fill="oklch(0.58 0.19 195)" opacity="0.38"/>
<rect x="798.43" y="1230.7" width="22.81" height="1.4" fill="oklch(0.58 0.19 195)" opacity="0.19"/>
<rect x="109.51" y="919.13" width="19.57" height="1.4" fill="oklch(0.58 0.19 195)" opacity="0.15"/>
<rect x="186.99" y="1157.84" width="9.72" height="1.4" fill="oklch(0.58 0.19 195)" opacity="0.13"/>
<rect x="43.11" y="1098.22" width="18.46" height="1.4" fill="oklch(0.58 0.19 195)" opacity="0.29"/>
<rect x="250.15" y="1241.06" width="10.4" height="1.4" fill="oklch(0.58 0.19 195)" opacity="0.17"/>
<rect x="582.8" y="1095.02" width="20.83" height="1.4" fill="oklch(0.58 0.19 195)" opacity="0.38"/>
<rect x="974.39" y="820.82" width="21.78" height="1.4" fill="oklch(0.58 0.19 195)" opacity="0.12"/>
<rect x="724.13" y="793.25" width="11.63" height="1.4" fill="oklch(0.58 0.19 195)" opacity="0.21"/>
<rect x="992.21" y="979.68" width="17.53" height="1.4" fill="oklch(0.58 0.19 195)" opacity="0.34"/>
<rect x="156.56" y="1243.69" width="10.75" height="1.4" fill="oklch(0.58 0.19 195)" opacity="0.36"/>
<rect x="754.7" y="1093.07" width="8.66" height="1.4" fill="oklch(0.58 0.19 195)" opacity="0.24"/>
<rect x="312.69" y="843.6" width="24.77" height="1.4" fill="oklch(0.58 0.19 195)" opacity="0.36"/>
<rect x="996.25" y="759.18" width="20.89" height="1.4" fill="oklch(0.58 0.19 195)" opacity="0.1"/>
<rect x="372.97" y="1173.39" width="10.13" height="1.4" fill="oklch(0.58 0.19 195)" opacity="0.42"/>
<rect x="231.06" y="790.8" width="15.49" height="1.4" fill="oklch(0.58 0.19 195)" opacity="0.2"/>
<rect x="453.71" y="783.23" width="11.16" height="1.4" fill="oklch(0.58 0.19 195)" opacity="0.44"/>
<rect x="192.44" y="1159.36" width="18.78" height="1.4" fill="oklch(0.58 0.19 195)" opacity="0.4"/>
<rect x="742.91" y="1222.8" width="13.2" height="1.4" fill="oklch(0.58 0.19 195)" opacity="0.44"/>
<rect x="255.37" y="800.98" width="10.71" height="1.4" fill="oklch(0.58 0.19 195)" opacity="0.34"/>
<rect x="166.04" y="1161.78" width="4.22" height="1.4" fill="oklch(0.58 0.19 195)" opacity="0.39"/>
<rect x="227.21" y="781.92" width="22.12" height="1.4" fill="oklch(0.58 0.19 195)" opacity="0.39"/>
<rect x="644.75" y="848.96" width="13.72" height="1.4" fill="oklch(0.58 0.19 195)" opacity="0.28"/>
<rect x="257.59" y="896.47" width="8.27" height="1.4" fill="oklch(0.58 0.19 195)" opacity="0.27"/>
<rect x="846.43" y="799.92" width="7.8" height="1.4" fill="oklch(0.58 0.19 195)" opacity="0.29"/>
<rect x="765" y="869.62" width="29.02" height="1.4" fill="oklch(0.58 0.19 195)" opacity="0.25"/>
<rect x="695.28" y="833.17" width="18.02" height="1.4" fill="oklch(0.58 0.19 195)" opacity="0.24"/>
<rect x="909.98" y="1078.97" width="6.86" height="1.4" fill="oklch(0.58 0.19 195)" opacity="0.2"/>
<rect x="424" y="1201.07" width="10.84" height="1.4" fill="oklch(0.58 0.19 195)" opacity="0.42"/>
<rect x="559.95" y="1165.84" width="23.52" height="1.4" fill="oklch(0.58 0.19 195)" opacity="0.15"/>
<rect x="487.62" y="871.12" width="23.34" height="1.4" fill="oklch(0.58 0.19 195)" opacity="0.15"/>
<rect x="744.41" y="1145.58" width="19.42" height="1.4" fill="oklch(0.58 0.19 195)" opacity="0.32"/>
<rect x="298.61" y="1141.71" width="23.32" height="1.4" fill="oklch(0.58 0.19 195)" opacity="0.14"/>
<rect x="602.87" y="1220.9" width="13.3" height="1.4" fill="oklch(0.58 0.19 195)" opacity="0.38"/>
<rect x="698.97" y="747.63" width="29.09" height="1.4" fill="oklch(0.58 0.19 195)" opacity="0.25"/>
<rect x="207.56" y="944.84" width="23.37" height="1.4" fill="oklch(0.58 0.19 195)" opacity="0.37"/>
<rect x="147.63" y="796.91" width="29.78" height="1.4" fill="oklch(0.58 0.19 195)" opacity="0.39"/>
<rect x="384.18" y="914.41" width="6.98" height="1.4" fill="oklch(0.58 0.19 195)" opacity="0.33"/>
<rect x="656.97" y="1106.16" width="8.81" height="1.4" fill="oklch(0.58 0.19 195)" opacity="0.15"/>
<rect x="911.64" y="1124.13" width="13.71" height="1.4" fill="oklch(0.58 0.19 195)" opacity="0.3"/>
<rect x="209.32" y="1085.34" width="18.14" height="1.4" fill="oklch(0.58 0.19 195)" opacity="0.34"/>
<rect x="939.2" y="831.64" width="16.4" height="1.4" fill="oklch(0.58 0.19 195)" opacity="0.33"/>
<rect x="756.98" y="1239.2" width="8.27" height="1.4" fill="oklch(0.58 0.19 195)" opacity="0.22"/>
<rect x="617.67" y="1224.04" width="9.4" height="1.4" fill="oklch(0.58 0.19 195)" opacity="0.4"/>
<rect x="567.43" y="937.06" width="25.53" height="1.4" fill="oklch(0.58 0.19 195)" opacity="0.22"/>
<rect x="714.72" y="1136.9" width="20.8" height="1.4" fill="oklch(0.58 0.19 195)" opacity="0.31"/>
<rect x="517.95" y="1064.31" width="22.45" height="1.4" fill="oklch(0.58 0.19 195)" opacity="0.14"/>
<rect x="179.71" y="851.02" width="25.77" height="1.4" fill="oklch(0.58 0.19 195)" opacity="0.22"/>
<rect x="256.17" y="782.54" width="5.01" height="1.4" fill="oklch(0.58 0.19 195)" opacity="0.25"/>
<rect x="388.55" y="861.28" width="19.45" height="1.4" fill="oklch(0.58 0.19 195)" opacity="0.36"/>
<rect x="628.01" y="1118.47" width="11.03" height="1.4" fill="oklch(0.58 0.19 195)" opacity="0.29"/>
<rect x="561.21" y="1170.83" width="17.18" height="1.4" fill="oklch(0.58 0.19 195)" opacity="0.2"/>
<rect x="973.6" y="982.77" width="5.07" height="1.4" fill="oklch(0.58 0.19 195)" opacity="0.14"/>
<rect x="582.86" y="918.14" width="16.39" height="1.4" fill="oklch(0.58 0.19 195)" opacity="0.22"/>
<rect x="794.4" y="1065.46" width="6.55" height="1.4" fill="oklch(0.58 0.19 195)" opacity="0.4"/>
<rect x="527.56" y="791.83" width="25.63" height="1.4" fill="oklch(0.58 0.19 195)" opacity="0.17"/>
    </g>
    <rect x="381.92" y="69.8" width="435.74" height="616.18" fill="none" stroke="oklch(0.25 0.02 90)" stroke-width="2" opacity="0.38"/>
  </g>
  <rect width="1000" height="1250" filter="url(#grain)" opacity="0.09" style="mix-blend-mode:overlay"/>
</svg>
