<svg xmlns="http://www.w3.org/2000/svg" viewBox="0 0 1000 1250" width="1000" height="1250" role="img" aria-label="火水未済のイメージ">
  <title>火水未済（第64卦 ䷿）</title>
  <defs>
    <linearGradient id="bg" x1="0" y1="0" x2="0" y2="1">
      <stop offset="0%" stop-color="oklch(0.22 0.05 35)"/>
      <stop offset="100%" stop-color="oklch(0.18 0.05 250)"/>
    </linearGradient>
    <linearGradient id="fadeDown" x1="0" y1="0" x2="0" y2="1">
      <stop offset="39.21%" stop-color="#fff"/>
      <stop offset="54.2%" stop-color="#000"/>
    </linearGradient>
    <linearGradient id="fadeUp" x1="0" y1="0" x2="0" y2="1">
      <stop offset="39.21%" stop-color="#000"/>
      <stop offset="54.2%" stop-color="#fff"/>
    </linearGradient>
    <mask id="maskUpper"><rect width="1000" height="1250" fill="url(#fadeDown)"/></mask>
    <mask id="maskLower"><rect width="1000" height="1250" fill="url(#fadeUp)"/></mask>
    <filter id="grain">
      <feTurbulence type="fractalNoise" baseFrequency="0.85" numOctaves="3" seed="64"/>
      <feColorMatrix type="saturate" values="0"/>
    </filter>
    <clipPath id="frame"><rect width="1000" height="1250"/></clipPath>
  </defs>
  <rect width="1000" height="1250" fill="url(#bg)"/>
  <g clip-path="url(#frame)">
    <g mask="url(#maskUpper)">
<path d="M 296.71 677.49 Q 315.37 487.26 334.44 331.61 Q 353.52 487.26 423.88 677.49 Z" fill="oklch(0.78 0.19 35)" opacity="0.18"/>
<path d="M 361.63 677.49 Q 368.69 490.02 380.2 336.64 Q 391.72 490.02 438.39 677.49 Z" fill="oklch(0.62 0.06 35)" opacity="0.25"/>
<path d="M 643.54 677.49 Q 680.29 433.97 693.17 234.73 Q 706.04 433.97 729.39 677.49 Z" fill="oklch(0.62 0.06 35)" opacity="0.18"/>
<path d="M 564.71 677.49 Q 568.97 539.18 572.66 426.01 Q 576.35 539.18 589.32 677.49 Z" fill="oklch(0.62 0.06 35)" opacity="0.3"/>
<path d="M 915.55 677.49 Q 921.64 470.58 926.37 301.3 Q 931.09 470.58 947.05 677.49 Z" fill="oklch(0.62 0.06 35)" opacity="0.23"/>
<path d="M 408.05 677.49 Q 402.61 493.53 418.39 343.02 Q 434.17 493.53 513.24 677.49 Z" fill="oklch(0.62 0.06 35)" opacity="0.32"/>
<path d="M 321.06 677.49 Q 323.9 415.57 342.31 201.28 Q 360.71 415.57 443.75 677.49 Z" fill="oklch(0.78 0.19 35)" opacity="0.29"/>
<path d="M 888.8 677.49 Q 921.05 565.57 928.55 474.01 Q 936.05 565.57 938.81 677.49 Z" fill="oklch(0.62 0.06 35)" opacity="0.15"/>
<path d="M 252.68 677.49 Q 266.85 309.85 272.82 9.06 Q 278.79 309.85 292.49 677.49 Z" fill="oklch(0.62 0.06 35)" opacity="0.23"/>
<path d="M 29.26 677.49 Q 75.02 345.53 90.61 73.92 Q 106.2 345.53 133.18 677.49 Z" fill="oklch(0.62 0.06 35)" opacity="0.07"/>
<path d="M 266.78 677.49 Q 281.13 583.42 287.5 506.46 Q 293.86 583.42 309.21 677.49 Z" fill="oklch(0.62 0.06 35)" opacity="0.26"/>
<path d="M 843.04 677.49 Q 840.97 426.99 844.79 222.04 Q 848.62 426.99 868.55 677.49 Z" fill="oklch(0.62 0.06 35)" opacity="0.26"/>
<path d="M -1.12 677.49 Q 91.45 302.57 110.44 -4.18 Q 129.42 302.57 125.44 677.49 Z" fill="oklch(0.78 0.19 35)" opacity="0.21"/>
<path d="M 280.12 677.49 Q 358.93 437.67 378.58 241.46 Q 398.23 437.67 411.11 677.49 Z" fill="oklch(0.62 0.06 35)" opacity="0.09"/>
<path d="M 922.93 677.49 Q 941.81 334.17 946.83 53.27 Q 951.85 334.17 956.39 677.49 Z" fill="oklch(0.62 0.06 35)" opacity="0.28"/>
<path d="M 925.3 677.49 Q 922.97 335.76 931.51 56.17 Q 940.04 335.76 982.19 677.49 Z" fill="oklch(0.62 0.06 35)" opacity="0.31"/>
<path d="M 133.12 677.49 Q 157.87 397.25 176.31 167.96 Q 194.75 397.25 256.07 677.49 Z" fill="oklch(0.62 0.06 35)" opacity="0.28"/>
<path d="M 826.23 677.49 Q 828.5 315.14 841.01 18.68 Q 853.52 315.14 909.63 677.49 Z" fill="oklch(0.62 0.06 35)" opacity="0.16"/>
<path d="M 742.14 677.49 Q 760.35 478.47 764.9 315.65 Q 769.45 478.47 772.48 677.49 Z" fill="oklch(0.78 0.19 35)" opacity="0.31"/>
<path d="M 304.52 677.49 Q 337.43 571.3 349.61 484.41 Q 361.8 571.3 385.77 677.49 Z" fill="oklch(0.62 0.06 35)" opacity="0.31"/>
<path d="M 715.46 677.49 Q 716.35 596.73 732.6 530.66 Q 748.85 596.73 823.78 677.49 Z" fill="oklch(0.62 0.06 35)" opacity="0.3"/>
<path d="M 322.61 677.49 Q 392.01 319.2 410.2 26.06 Q 428.39 319.2 443.87 677.49 Z" fill="oklch(0.62 0.06 35)" opacity="0.15"/>
<path d="M 503 677.49 Q 511.24 369.86 519.04 118.17 Q 526.83 369.86 554.99 677.49 Z" fill="oklch(0.62 0.06 35)" opacity="0.27"/>
<path d="M 118.86 677.49 Q 126.14 369.37 139.82 117.28 Q 153.49 369.37 210.03 677.49 Z" fill="oklch(0.62 0.06 35)" opacity="0.21"/>
<path d="M -51.92 677.49 Q -48.28 480.69 -29.71 319.67 Q -11.14 480.69 71.87 677.49 Z" fill="oklch(0.78 0.19 35)" opacity="0.24"/>
<path d="M 765.35 677.49 Q 772.2 383.27 781.41 142.55 Q 790.62 383.27 826.76 677.49 Z" fill="oklch(0.62 0.06 35)" opacity="0.08"/>
<path d="M 506.57 677.49 Q 535.66 424.51 553.89 217.54 Q 572.12 424.51 628.09 677.49 Z" fill="oklch(0.62 0.06 35)" opacity="0.31"/>
<path d="M 448.33 677.49 Q 498.22 544.78 516.55 436.21 Q 534.88 544.78 570.54 677.49 Z" fill="oklch(0.62 0.06 35)" opacity="0.11"/>
<path d="M 206.33 677.49 Q 211.98 537.96 222.93 423.81 Q 233.87 537.96 279.29 677.49 Z" fill="oklch(0.62 0.06 35)" opacity="0.31"/>
    </g>
    <g mask="url(#maskLower)">
<path d="M 0 496.08 Q 59.11 484.05 118.21 496.08 Q 177.32 508.11 236.42 496.08 Q 295.53 484.05 354.64 496.08 Q 413.74 484.05 472.85 496.08 Q 531.96 484.05 591.06 496.08 Q 650.17 508.11 709.27 496.08 Q 768.38 484.05 827.49 496.08 Q 886.59 508.11 945.7 496.08 Q 1004.8 484.05 1000 496.08" fill="none" stroke="oklch(0.78 0.19 250)" stroke-width="1.56" opacity="0.16"/>
<path d="M 0 531.55 Q 124.56 516.8 249.12 531.55 Q 373.68 546.29 498.23 531.55 Q 622.79 516.8 747.35 531.55 Q 871.91 516.8 996.47 531.55 Q 1121.03 516.8 1000 531.55" fill="none" stroke="oklch(0.86 0.15 250)" stroke-width="1.54" opacity="0.26"/>
<path d="M 0 570.65 Q 85.6 535.01 171.2 570.65 Q 256.79 606.28 342.39 570.65 Q 427.99 535.01 513.59 570.65 Q 599.19 606.28 684.79 570.65 Q 770.38 535.01 855.98 570.65 Q 941.58 606.28 1000 570.65" fill="none" stroke="oklch(0.86 0.15 250)" stroke-width="1.12" opacity="0.53"/>
<path d="M 0 612.13 Q 59.67 585.2 119.35 612.13 Q 179.02 639.07 238.69 612.13 Q 298.37 585.2 358.04 612.13 Q 417.72 639.07 477.39 612.13 Q 537.06 585.2 596.74 612.13 Q 656.41 639.07 716.08 612.13 Q 775.76 585.2 835.43 612.13 Q 895.1 639.07 954.78 612.13 Q 1014.45 585.2 1000 612.13" fill="none" stroke="oklch(0.86 0.15 250)" stroke-width="2.91" opacity="0.38"/>
<path d="M 0 655.35 Q 65.89 648.43 131.78 655.35 Q 197.67 662.28 263.56 655.35 Q 329.45 648.43 395.33 655.35 Q 461.22 662.28 527.11 655.35 Q 593 648.43 658.89 655.35 Q 724.78 662.28 790.67 655.35 Q 856.56 648.43 922.45 655.35 Q 988.34 662.28 1000 655.35" fill="none" stroke="oklch(0.86 0.15 250)" stroke-width="2.47" opacity="0.48"/>
<path d="M 0 693.93 Q 84.42 656.26 168.84 693.93 Q 253.26 731.6 337.68 693.93 Q 422.1 656.26 506.52 693.93 Q 590.94 731.6 675.36 693.93 Q 759.78 656.26 844.2 693.93 Q 928.61 731.6 1000 693.93" fill="none" stroke="oklch(0.78 0.19 250)" stroke-width="2.65" opacity="0.47"/>
<path d="M 0 735.76 Q 80.95 708.04 161.9 735.76 Q 242.85 763.48 323.8 735.76 Q 404.75 708.04 485.7 735.76 Q 566.66 763.48 647.61 735.76 Q 728.56 708.04 809.51 735.76 Q 890.46 763.48 971.41 735.76 Q 1052.36 708.04 1000 735.76" fill="none" stroke="oklch(0.86 0.15 250)" stroke-width="1.19" opacity="0.32"/>
<path d="M 0 770.57 Q 81.91 743.36 163.81 770.57 Q 245.72 797.78 327.63 770.57 Q 409.53 743.36 491.44 770.57 Q 573.35 797.78 655.25 770.57 Q 737.16 743.36 819.07 770.57 Q 900.97 797.78 982.88 770.57 Q 1064.79 743.36 1000 770.57" fill="none" stroke="oklch(0.86 0.15 250)" stroke-width="2.73" opacity="0.3"/>
<path d="M 0 812.56 Q 46.4 799.23 92.81 812.56 Q 139.21 825.9 185.61 812.56 Q 232.02 799.23 278.42 812.56 Q 324.82 799.23 371.23 812.56 Q 417.63 799.23 464.03 812.56 Q 510.44 825.9 556.84 812.56 Q 603.24 799.23 649.65 812.56 Q 696.05 825.9 742.45 812.56 Q 788.86 799.23 835.26 812.56 Q 881.66 825.9 928.07 812.56 Q 974.47 799.23 1000 812.56" fill="none" stroke="oklch(0.86 0.15 250)" stroke-width="0.9" opacity="0.27"/>
<path d="M 0 851.69 Q 103.31 830.79 206.61 851.69 Q 309.92 872.6 413.23 851.69 Q 516.53 830.79 619.84 851.69 Q 723.15 872.6 826.46 851.69 Q 929.76 830.79 1000 851.69" fill="none" stroke="oklch(0.86 0.15 250)" stroke-width="1.32" opacity="0.2"/>
<path d="M 0 890.72 Q 79.74 851.97 159.47 890.72 Q 239.21 929.47 318.94 890.72 Q 398.68 851.97 478.41 890.72 Q 558.15 929.47 637.88 890.72 Q 717.62 851.97 797.35 890.72 Q 877.09 929.47 956.82 890.72 Q 1036.56 851.97 1000 890.72" fill="none" stroke="oklch(0.78 0.19 250)" stroke-width="3.08" opacity="0.4"/>
<path d="M 0 935.4 Q 42.54 909.72 85.07 935.4 Q 127.61 961.07 170.15 935.4 Q 212.68 909.72 255.22 935.4 Q 297.76 961.07 340.3 935.4 Q 382.83 909.72 425.37 935.4 Q 467.91 961.07 510.44 935.4 Q 552.98 909.72 595.52 935.4 Q 638.05 961.07 680.59 935.4 Q 723.13 909.72 765.66 935.4 Q 808.2 961.07 850.74 935.4 Q 893.28 909.72 935.81 935.4 Q 978.35 961.07 1000 935.4" fill="none" stroke="oklch(0.86 0.15 250)" stroke-width="1.28" opacity="0.52"/>
<path d="M 0 972.34 Q 42.4 939.31 84.79 972.34 Q 127.19 1005.38 169.58 972.34 Q 211.98 939.31 254.37 972.34 Q 296.77 1005.38 339.17 972.34 Q 381.56 939.31 423.96 972.34 Q 466.35 1005.38 508.75 972.34 Q 551.14 939.31 593.54 972.34 Q 635.93 1005.38 678.33 972.34 Q 720.73 939.31 763.12 972.34 Q 805.52 1005.38 847.91 972.34 Q 890.31 939.31 932.7 972.34 Q 975.1 1005.38 1000 972.34" fill="none" stroke="oklch(0.86 0.15 250)" stroke-width="1.29" opacity="0.15"/>
<path d="M 0 1015.63 Q 107.61 990.95 215.22 1015.63 Q 322.83 1040.3 430.44 1015.63 Q 538.05 990.95 645.66 1015.63 Q 753.27 1040.3 860.88 1015.63 Q 968.49 990.95 1000 1015.63" fill="none" stroke="oklch(0.86 0.15 250)" stroke-width="1.66" opacity="0.43"/>
<path d="M 0 1055.55 Q 44.95 1038.63 89.9 1055.55 Q 134.85 1072.48 179.8 1055.55 Q 224.75 1038.63 269.69 1055.55 Q 314.64 1072.48 359.59 1055.55 Q 404.54 1038.63 449.49 1055.55 Q 494.44 1072.48 539.39 1055.55 Q 584.34 1072.48 629.29 1055.55 Q 674.24 1038.63 719.18 1055.55 Q 764.13 1072.48 809.08 1055.55 Q 854.03 1038.63 898.98 1055.55 Q 943.93 1072.48 988.88 1055.55 Q 1033.83 1038.63 1000 1055.55" fill="none" stroke="oklch(0.86 0.15 250)" stroke-width="2.55" opacity="0.38"/>
<path d="M 0 1095.49 Q 43.45 1083.08 86.91 1095.49 Q 130.36 1107.89 173.82 1095.49 Q 217.27 1083.08 260.72 1095.49 Q 304.18 1107.89 347.63 1095.49 Q 391.09 1083.08 434.54 1095.49 Q 477.99 1107.89 521.45 1095.49 Q 564.9 1083.08 608.36 1095.49 Q 651.81 1107.89 695.26 1095.49 Q 738.72 1083.08 782.17 1095.49 Q 825.63 1107.89 869.08 1095.49 Q 912.54 1107.89 955.99 1095.49 Q 999.44 1083.08 1000 1095.49" fill="none" stroke="oklch(0.78 0.19 250)" stroke-width="1.34" opacity="0.55"/>
<path d="M 0 1134.8 Q 121.81 1115.89 243.62 1134.8 Q 365.43 1153.71 487.24 1134.8 Q 609.05 1115.89 730.85 1134.8 Q 852.66 1153.71 974.47 1134.8 Q 1096.28 1115.89 1000 1134.8" fill="none" stroke="oklch(0.86 0.15 250)" stroke-width="2.58" opacity="0.36"/>
<path d="M 0 1173.31 Q 51.09 1142.11 102.17 1173.31 Q 153.26 1204.51 204.34 1173.31 Q 255.43 1142.11 306.51 1173.31 Q 357.6 1204.51 408.69 1173.31 Q 459.77 1142.11 510.86 1173.31 Q 561.94 1204.51 613.03 1173.31 Q 664.11 1142.11 715.2 1173.31 Q 766.29 1142.11 817.37 1173.31 Q 868.46 1142.11 919.54 1173.31 Q 970.63 1204.51 1000 1173.31" fill="none" stroke="oklch(0.86 0.15 250)" stroke-width="2.42" opacity="0.35"/>
<path d="M 0 1213.53 Q 57.97 1179.18 115.94 1213.53 Q 173.91 1247.89 231.88 1213.53 Q 289.85 1179.18 347.82 1213.53 Q 405.78 1247.89 463.75 1213.53 Q 521.72 1179.18 579.69 1213.53 Q 637.66 1247.89 695.63 1213.53 Q 753.6 1179.18 811.57 1213.53 Q 869.54 1247.89 927.51 1213.53 Q 985.48 1179.18 1000 1213.53" fill="none" stroke="oklch(0.86 0.15 250)" stroke-width="1.47" opacity="0.43"/>
    </g>
    <rect x="177.06" y="269.23" width="551.84" height="706.3" fill="none" stroke="oklch(0.95 0.02 90)" stroke-width="2" opacity="0.5"/>
  </g>
  <rect width="1000" height="1250" filter="url(#grain)" opacity="0.12" style="mix-blend-mode:overlay"/>
</svg>
